<svg width="72" height="72" viewBox="0 0 72 72" fill="none" xmlns="http://www.w3.org/2000/svg">
<path d="M27.5 37C28.3279 37 29 37.6721 29 38.5C29 39.3279 28.3279 40 27.5 40C26.6721 40 26 39.3279 26 38.5C26 37.6721 26.6721 37 27.5 37Z" fill="white"/>
<path fill-rule="evenodd" clip-rule="evenodd" d="M57.6327 52.001L71.6952 69.7198C72.0309 70.1422 72.0946 70.7195 71.86 71.2051C71.6255 71.6913 71.1333 72 70.5938 72H1.40639C0.866966 72 0.374779 71.6913 0.140221 71.2051C-0.0948868 70.7195 -0.0306168 70.1422 0.305016 69.7198L14.3675 52.001C14.6339 51.6649 15.0399 51.4688 15.4689 51.4688H27.7873L17.2706 34.9739C14.8037 31.2753 13.5001 26.9621 13.5001 22.5C13.5001 10.0937 23.5933 0 36.0001 0C48.407 0 58.5001 10.0937 58.5001 22.5C58.5001 26.9621 57.1966 31.2748 54.7296 34.9739L44.2129 51.4688H56.5314C56.9604 51.4688 57.3658 51.6649 57.6327 52.001ZM62.8831 63.1406H54.3802L59.1791 69.1875H67.6825L62.8831 63.1406ZM38.5643 60.3281L42.4194 54.2812H43.7581L48.5575 60.3281H38.5643ZM29.5803 54.2812H28.2416L23.4428 60.3281H33.4354L29.5803 54.2812ZM16.4115 69.1875L21.2103 63.1406H50.7894L55.5887 69.1875H16.4115ZM12.8206 69.1875L17.62 63.1406H9.1166L4.31777 69.1875H12.8206ZM19.8519 60.3281H11.349L16.1478 54.2812H24.6512L19.8519 60.3281ZM52.3818 33.4248C54.5445 30.1871 55.6876 26.4095 55.6876 22.5C55.6876 11.6444 46.8557 2.8125 36.0001 2.8125C25.1445 2.8125 16.3126 11.6444 16.3126 22.5C16.3126 26.4095 17.4558 30.1871 19.6179 33.4248C19.6219 33.4303 19.6254 33.4358 19.629 33.4413L19.6343 33.4495C20.5577 34.8981 35.2888 58.0034 36.0001 59.1185C37.7892 56.3121 50.5438 36.3071 52.3659 33.4495C52.3692 33.444 52.3727 33.4386 52.3763 33.4331C52.3781 33.4303 52.38 33.4276 52.3818 33.4248ZM52.1478 60.3281L47.349 54.2812H55.8518L60.6512 60.3281H52.1478Z" fill="white"/>
<path fill-rule="evenodd" clip-rule="evenodd" d="M22 22C22 29.776 28.3142 36 36 36C43.6836 36 50 29.7782 50 22C50 14.2803 43.7197 8 36 8C28.2803 8 22 14.2803 22 22ZM24.8 22C24.8 15.8241 29.8241 10.8 36 10.8C42.1759 10.8 47.2 15.8241 47.2 22C47.2 28.2333 42.137 33.2 36 33.2C29.8646 33.2 24.8 28.2333 24.8 22Z" fill="white"/>
<path d="M30.6797 42.1944C31.3435 41.8087 32.2069 42.0148 32.6074 42.6546L37.7982 50.9488C38.1986 51.5887 37.9847 52.4198 37.3203 52.8055C36.6532 53.1928 35.7914 52.9825 35.3926 52.3453L30.2018 44.0511C29.8014 43.4112 30.0153 42.5801 30.6797 42.1944V42.1944Z" fill="white"/>
</svg>
