<svg width="13" height="12" viewBox="0 0 13 12" fill="none" xmlns="http://www.w3.org/2000/svg">
<path d="M0.664062 5.35938C0.498047 5.52539 0.498047 5.75781 0.664062 5.92383L5.54492 10.8379C5.67773 11.0039 5.94336 11.0039 6.10938 10.8379L6.74023 10.1738C6.90625 10.0078 6.90625 9.77539 6.74023 9.60938L2.82227 5.625L6.74023 1.67383C6.90625 1.50781 6.90625 1.24219 6.74023 1.10938L6.10938 0.445312C5.94336 0.279297 5.67773 0.279297 5.54492 0.445312L0.664062 5.35938ZM5.97656 5.92383L10.8574 10.8379C10.9902 11.0039 11.2559 11.0039 11.4219 10.8379L12.0527 10.1738C12.2188 10.0078 12.2188 9.77539 12.0527 9.60938L8.13477 5.625L12.0527 1.67383C12.2188 1.50781 12.2188 1.24219 12.0527 1.10938L11.4219 0.445312C11.2559 0.279297 10.9902 0.279297 10.8574 0.445312L5.97656 5.35938C5.81055 5.52539 5.81055 5.75781 5.97656 5.92383Z" fill="#382933"/>
</svg>
