<svg width="20" height="23" viewBox="0 0 20 23" fill="none" xmlns="http://www.w3.org/2000/svg">
<path d="M5.5 7.28125C5.5 7.49609 5.62891 7.625 5.84375 7.625H14.7812C14.9531 7.625 15.125 7.49609 15.125 7.28125V5.90625C15.125 5.73438 14.9531 5.5625 14.7812 5.5625H5.84375C5.62891 5.5625 5.5 5.73438 5.5 5.90625V7.28125ZM5.84375 11.0625H14.7812C14.9531 11.0625 15.125 10.9336 15.125 10.7188V9.34375C15.125 9.17188 14.9531 9 14.7812 9H5.84375C5.62891 9 5.5 9.17188 5.5 9.34375V10.7188C5.5 10.9336 5.62891 11.0625 5.84375 11.0625ZM18.6914 17.9375C18.9922 17.8945 19.25 17.5938 19.25 17.25V1.4375C19.25 1.09375 18.9062 0.75 18.5625 0.75H3.4375C1.50391 0.75 0 2.29688 0 4.1875V19.3125C0 21.2461 1.50391 22.75 3.4375 22.75H18.5625C18.9062 22.75 19.25 22.4492 19.25 22.0625V21.375C19.25 21.0742 18.9922 20.7734 18.6914 20.7305C18.4766 20.1719 18.4766 18.4961 18.6914 17.9375ZM16.9297 17.9375C16.8008 18.7109 16.8008 19.957 16.9297 20.6875H3.4375C2.66406 20.6875 2.0625 20.0859 2.0625 19.3125C2.0625 18.582 2.66406 17.9375 3.4375 17.9375H16.9297ZM17.1875 2.8125V15.875H3.4375C2.92188 15.875 2.44922 16.0039 2.0625 16.1758V4.1875C2.0625 3.45703 2.66406 2.8125 3.4375 2.8125H17.1875Z" fill="white"/>
</svg>
