<svg width="13" height="15" viewBox="0 0 13 15" fill="none" xmlns="http://www.w3.org/2000/svg">
<path d="M11.4375 2.5H10.125V1.07812C10.125 0.914062 9.96094 0.75 9.79688 0.75H8.70312C8.51172 0.75 8.375 0.914062 8.375 1.07812V2.5H4.875V1.07812C4.875 0.914062 4.71094 0.75 4.54688 0.75H3.45312C3.26172 0.75 3.125 0.914062 3.125 1.07812V2.5H1.8125C1.07422 2.5 0.5 3.10156 0.5 3.8125V13.4375C0.5 14.1758 1.07422 14.75 1.8125 14.75H11.4375C12.1484 14.75 12.75 14.1758 12.75 13.4375V3.8125C12.75 3.10156 12.1484 2.5 11.4375 2.5ZM11.2734 13.4375H1.97656C1.86719 13.4375 1.8125 13.3828 1.8125 13.2734V5.125H11.4375V13.2734C11.4375 13.3828 11.3555 13.4375 11.2734 13.4375Z" fill="#00008E"/>
</svg>
