<svg width="20" height="23" viewBox="0 0 20 23" fill="none" xmlns="http://www.w3.org/2000/svg">
<path d="M17.1875 3.5H15.125V1.26562C15.125 1.00781 14.8672 0.75 14.6094 0.75H12.8906C12.5898 0.75 12.375 1.00781 12.375 1.26562V3.5H6.875V1.26562C6.875 1.00781 6.61719 0.75 6.35938 0.75H4.64062C4.33984 0.75 4.125 1.00781 4.125 1.26562V3.5H2.0625C0.902344 3.5 0 4.44531 0 5.5625V20.6875C0 21.8477 0.902344 22.75 2.0625 22.75H17.1875C18.3047 22.75 19.25 21.8477 19.25 20.6875V5.5625C19.25 4.44531 18.3047 3.5 17.1875 3.5ZM16.9297 20.6875H2.32031C2.14844 20.6875 2.0625 20.6016 2.0625 20.4297V7.625H17.1875V20.4297C17.1875 20.6016 17.0586 20.6875 16.9297 20.6875ZM14.6523 12.0938C14.8242 11.8789 14.8242 11.5781 14.6523 11.3633L13.6641 10.375C13.4922 10.1602 13.1484 10.1602 12.9336 10.375L8.16406 15.1016L6.27344 13.2109C6.05859 12.9961 5.75781 12.9961 5.54297 13.2109L4.55469 14.1562C4.38281 14.3711 4.38281 14.7148 4.55469 14.8867L7.77734 18.1523C7.99219 18.3672 8.33594 18.3672 8.50781 18.1523L14.6523 12.0938Z" fill="white"/>
</svg>
