<svg width="100" height="100" viewBox="0 0 100 100" fill="none" xmlns="http://www.w3.org/2000/svg">
<path fill-rule="evenodd" clip-rule="evenodd" d="M83.009 45.8891V13.5129C83.0242 10.3788 80.5055 7.82132 77.3726 7.79169H72.5561V2.13294C72.5561 1.0052 71.6546 0 70.5065 0H57.8806C56.7189 0.035242 55.7845 0.969956 55.7493 2.13294V7.79169H27.2598V2.13294C27.2342 0.973961 26.3071 0.0368438 25.1486 0H12.5235C11.3698 0.03364 10.4523 0.978766 10.4531 2.13294V7.79169H5.65732C2.52047 7.81972 -0.0055079 10.3748 9.64983e-05 13.5129V75.8873C-0.0127135 79.0278 2.51727 81.5868 5.65732 81.6077H45.3988C49.3955 92.27 59.7252 100 71.8387 100C87.3749 100 99.9999 87.3489 99.9999 71.7864C100.018 60.533 93.3363 50.3496 83.009 45.8891ZM70.4916 43.6137L70.4915 43.6137C70.0508 43.6442 69.6125 43.6745 69.1742 43.6745H63.9477V31.5768H78.9098V43.6745H74.5032C74.0778 43.6745 73.6423 43.6445 73.2018 43.6143L73.2016 43.6142C72.7508 43.5833 72.2946 43.5519 71.8387 43.5519C71.3854 43.5519 70.9373 43.5829 70.4916 43.6137ZM23.1606 47.7753V59.873H39.5574V47.7753H23.1606ZM39.5574 63.9739V77.5068H23.1606V63.9739H39.5574ZM59.8485 43.6745V31.5768H43.6567V43.6745H59.8485ZM39.5574 43.6745H23.1606V31.5768H39.5574V43.6745ZM4.0993 43.6745H19.0614V31.5768H4.0993V43.6745ZM19.0614 47.7753V59.873H4.0993V47.7753H19.0614ZM57.0199 47.7753H43.6567V59.873H46.3003C48.6494 54.9014 52.3683 50.7044 57.0199 47.7753ZM59.8485 4.10089H68.4569V16.8136H59.8485V4.10089ZM23.1606 4.10089H14.5523V16.8136H23.1606V4.10089ZM5.65732 11.8926H10.4531V18.8024C10.4539 19.9526 11.3738 20.8913 12.5235 20.9145H25.1486C26.3063 20.8945 27.2398 19.9606 27.2598 18.8024V11.8926H55.7493V18.8024C55.7861 19.9614 56.7221 20.8889 57.8806 20.9145H70.5065C71.6522 20.8897 72.5649 19.9486 72.5561 18.8024V11.8926H77.3726C78.2437 11.9158 78.9323 12.6407 78.9098 13.5129V27.476H4.0993V13.5129C4.0945 12.6399 4.78464 11.9214 5.65732 11.8926ZM4.0993 63.9739V75.8873C4.08729 76.7627 4.78144 77.4852 5.65732 77.5068H19.0614V63.9739H4.0993ZM43.6567 77.5068V71.8064C43.6599 73.7215 43.852 75.6301 44.2307 77.5068H43.6567ZM43.6567 71.7724V63.9739H44.7631C44.0305 66.5092 43.6582 69.1343 43.6567 71.7724ZM47.7559 71.7655C47.7559 85.0526 58.5571 95.8791 71.8387 95.8791C85.1403 95.8791 95.9424 85.0526 95.9624 71.7655C95.9624 59.3195 86.4725 49.0056 74.3391 47.7753H69.3792C57.2457 49.0056 47.7559 59.3195 47.7559 71.7655Z" fill="#017280"/>
<path fill-rule="evenodd" clip-rule="evenodd" d="M82.8909 68.9474C82.8941 71.9371 81.9267 74.8462 80.1345 77.2385L86.4026 83.5282C86.7847 83.9095 87 84.4271 87 84.9672C87 85.508 86.7847 86.0257 86.4026 86.407C86.0142 86.7851 85.495 86.9973 84.9526 86.9997C84.4095 87.0068 83.8863 86.7931 83.5035 86.407L77.2354 80.138C74.8451 81.9336 71.9347 82.9012 68.9455 82.8948C61.2434 82.8948 55 76.6506 55 68.9474C55 61.245 61.2434 55 68.9455 55C76.6476 55 82.8909 61.245 82.8909 68.9474ZM66.3199 59.4215C62.0377 60.6037 59.0748 64.5043 59.0835 68.9474C59.0644 72.9023 61.4148 76.4839 65.0501 78.0385C68.6855 79.594 72.899 78.8203 75.7447 76.0747C75.787 76.0156 75.8349 75.9606 75.8875 75.9111C75.9369 75.8577 75.9912 75.8098 76.051 75.7683C79.1312 72.5665 79.6919 67.7006 77.4188 63.8829C75.1466 60.0653 70.602 58.2386 66.3199 59.4215Z" fill="#017280"/>
</svg>
