<svg width="42" height="42" viewBox="0 0 42 42" fill="none" xmlns="http://www.w3.org/2000/svg">
<path fill-rule="evenodd" clip-rule="evenodd" d="M34.948 19.382L35.0427 5.8369C35.0521 4.52387 33.9931 3.45158 32.6773 3.44219L30.6644 3.42475L30.6818 1.03876C30.6829 0.812096 30.5942 0.594151 30.4342 0.433207C30.2746 0.272263 30.0572 0.181397 29.8301 0.180391L24.5143 0.145855H24.5059C24.0355 0.141161 23.6505 0.517703 23.6458 0.987123L23.6286 3.37345L11.6121 3.28762L11.6295 0.901286C11.6309 0.42516 11.2462 0.0378889 10.7694 0.0342006L5.47074 0C4.99766 0 4.61126 0.377548 4.60185 0.84965L4.58472 3.23598H2.56337C1.93539 3.23464 1.33228 3.48175 0.886075 3.92267C0.433153 4.36225 0.178804 4.96613 0.18082 5.59649L5.43308e-05 31.708C-0.0029697 32.3403 0.244323 32.9479 0.688174 33.3992C1.13001 33.8502 1.73379 34.1064 2.36546 34.1114L19.044 34.2231C19.6286 35.8234 20.5529 37.2786 21.7534 38.4891C23.9502 40.7285 26.9563 41.9936 30.0969 42H30.1829C35.7739 41.9896 40.5954 38.077 41.7455 32.617C42.896 27.1569 40.0615 21.6382 34.948 19.382ZM30.2518 18.3862H30.1658C29.813 18.3862 29.4689 18.4033 29.1248 18.4291L26.9056 18.412L26.9402 13.3647L33.2623 13.4076L33.2277 18.4549L31.3784 18.4462C31.0084 18.412 30.6301 18.3862 30.2518 18.3862ZM9.84876 20.0171L9.81449 25.0643L16.6184 25.1073L16.6527 20.06L9.84876 20.0171ZM16.6097 26.824L16.5754 32.4805L9.77148 32.4376L9.80575 26.7811L16.6097 26.824ZM25.1853 18.412L25.2199 13.3647L18.416 13.3218L18.3817 18.3691L25.1853 18.412ZM16.6614 18.3433L9.8575 18.3003L9.89177 13.2531L16.6957 13.296L16.6614 18.3433ZM1.8151 18.249L8.1372 18.292L8.17147 13.2447L1.84938 13.2018L1.8151 18.249ZM8.12846 20.0087L8.09419 25.0556L1.7721 25.0127L1.80637 19.9658L8.12846 20.0087ZM24.007 20.1116L18.373 20.0771L18.3387 25.116L19.4824 25.1244C20.0768 23.8821 20.8832 22.7521 21.8653 21.7854C22.5138 21.149 23.2325 20.5874 24.007 20.1116ZM25.3661 1.86259L28.9441 1.88841L28.9098 7.15027L25.3314 7.12445L25.3661 1.86259ZM9.90924 1.75965L6.33089 1.73384L6.29662 6.9957L9.87463 7.02151L9.90924 1.75965ZM2.09902 5.14149C2.22401 5.02179 2.39033 4.95439 2.56337 4.95271H2.5721L4.58472 4.96982L4.56758 7.84535C4.56523 8.07369 4.65528 8.29364 4.81689 8.45492C4.97884 8.61654 5.19892 8.70606 5.42773 8.70371L10.7264 8.72953H10.7348C10.9609 8.73289 11.179 8.64571 11.3406 8.48778C11.5022 8.32985 11.5936 8.11392 11.5949 7.88827L11.6121 5.01273L23.6286 5.09857L23.6111 7.9741C23.6075 8.44956 23.9868 8.83951 24.4629 8.84991L29.7612 8.90121H29.77C30.2434 8.88981 30.6234 8.50689 30.6301 8.03446L30.6472 5.15021L32.6602 5.15892C32.8369 5.15926 33.0066 5.23034 33.1309 5.35608C33.2552 5.48182 33.3241 5.65181 33.3224 5.82818L33.2794 11.6996L1.85811 11.485L1.90112 5.61359C1.90011 5.43622 1.97168 5.26588 2.09902 5.14149ZM1.72909 31.7167C1.72909 31.8924 1.79696 32.0614 1.91825 32.1888C2.0419 32.3172 2.21326 32.3886 2.39134 32.3863L8.05118 32.4205L8.08546 26.764L1.76336 26.7211L1.72909 31.7167ZM18.287 32.4979L18.3212 26.8411H18.8202C18.5077 27.9037 18.3454 29.0044 18.3387 30.1116C18.3306 30.9126 18.4056 31.7123 18.5621 32.4979H18.287ZM30.1829 40.2833C32.8413 40.29 35.3935 39.2435 37.2791 37.3732C39.1889 35.4975 40.2722 32.9402 40.2896 30.2662C40.3239 25.0556 36.3672 20.7296 31.284 20.1716L29.2021 20.1545C23.8457 20.6716 19.8339 25.286 20.0768 30.6511C20.3201 36.0162 24.7324 40.2507 30.114 40.2833H30.1829Z" fill="#017280"/>
<path d="M30.7265 31.3207L30.7524 26.9094C30.7571 26.4122 30.3763 26.005 29.9019 26C29.4275 25.9951 29.0393 26.3943 29.0346 26.8915L29 31.6717C28.9977 31.9112 29.0876 32.1415 29.2493 32.311L31.5338 34.7326C31.8659 35.0857 32.4081 35.0895 32.7449 34.7417C33.0818 34.3936 33.0854 33.8253 32.7533 33.4722L30.7265 31.3207Z" fill="#017280"/>
</svg>
