<svg width="15" height="16" viewBox="0 0 15 16" fill="none" xmlns="http://www.w3.org/2000/svg">
<path d="M13.2812 0.1875C13.724 0.1875 14.1003 0.342448 14.4102 0.652344C14.7201 0.96224 14.875 1.33854 14.875 1.78125V13.4688C14.875 13.9115 14.7201 14.2878 14.4102 14.5977C14.1003 14.9076 13.724 15.0625 13.2812 15.0625H1.59375C1.15104 15.0625 0.77474 14.9076 0.464844 14.5977C0.154948 14.2878 0 13.9115 0 13.4688V1.78125C0 1.33854 0.154948 0.96224 0.464844 0.652344C0.77474 0.342448 1.15104 0.1875 1.59375 0.1875H13.2812ZM13.2812 13.4688V1.78125H1.59375V13.4688H13.2812ZM12.0859 5.43359L6.375 11.1113C6.17578 11.3105 5.98763 11.3105 5.81055 11.1113L2.78906 8.08984C2.58984 7.89062 2.58984 7.70247 2.78906 7.52539L3.55273 6.76172C3.72982 6.58464 3.91797 6.58464 4.11719 6.76172L6.07617 8.78711L10.791 4.13867C10.9681 3.93945 11.1562 3.93945 11.3555 4.13867L12.0859 4.86914C12.2852 5.06836 12.2852 5.25651 12.0859 5.43359Z" fill="#00008E"/>
</svg>
