<svg width="77" height="77" viewBox="0 0 77 77" fill="none" xmlns="http://www.w3.org/2000/svg">
<path d="M27.1667 64H7.83333C5.16856 64 3 61.8257 3 59.1538V23.6154C3 22.7237 3.72178 22 4.61111 22H59.3889C60.2782 22 61 22.7237 61 23.6154V33.5015C61 34.3932 60.2782 35.1169 59.3889 35.1169C58.4996 35.1169 57.7778 34.3932 57.7778 33.5015V25.2308H6.22222V59.1538C6.22222 60.0455 6.94722 60.7692 7.83333 60.7692H27.1667C28.056 60.7692 28.7778 61.4929 28.7778 62.3846C28.7778 63.2763 28.056 64 27.1667 64Z" fill="#017280"/>
<path d="M39.4167 36H23.5833C22.7093 36 22 35.104 22 34C22 32.896 22.7093 32 23.5833 32H39.4167C40.2907 32 41 32.896 41 34C41 35.104 40.2907 36 39.4167 36Z" fill="#017280"/>
<path fill-rule="evenodd" clip-rule="evenodd" d="M1.6 26H62.4C63.2832 26 64 25.2832 64 24.4V11.6C64 10.7168 63.2832 10 62.4 10H1.6C0.7168 10 0 10.7168 0 11.6V24.4C0 25.2832 0.7168 26 1.6 26ZM60.8 22.8H3.2V13.2H60.8V22.8Z" fill="#017280"/>
<path d="M62.3992 12.9992C61.9895 12.9992 61.5799 12.8399 61.2663 12.5247L52.1365 3.2498H11.8603L2.73047 12.5247C2.10645 13.1584 1.09203 13.1584 0.468012 12.5247C-0.156004 11.891 -0.156004 10.8608 0.468012 10.2271L10.0683 0.47772C10.3659 0.172239 10.7723 0 11.1979 0H52.7989C53.2245 0 53.6309 0.172239 53.9317 0.47447L63.532 10.2239C64.156 10.8576 64.156 11.8878 63.532 12.5215C63.2184 12.8399 62.8088 12.9992 62.3992 12.9992Z" fill="#017280"/>
<path fill-rule="evenodd" clip-rule="evenodd" d="M45.7504 76.9904C45.8371 76.9968 45.9304 77 46.0171 77C46.9203 77 47.785 76.6432 48.431 76.0037C49.4724 74.9623 49.7649 73.4164 49.1735 72.0601L47.3478 67.8755L56.682 59.2009L55.5859 58.0245L57.1673 59.1977L65.6208 74.8273C66.1929 75.7626 67.1475 76.3701 68.2371 76.4986C69.346 76.64 70.4003 76.2576 71.1749 75.4798C71.956 74.6923 72.2742 73.5771 72.0203 72.5068L66.9418 50.1631C66.9129 50.0442 66.9514 49.9188 67.0479 49.8288L75.482 41.8774C76.4206 40.9936 76.9734 39.5119 76.9991 37.8117C77.0249 36.0472 76.472 34.4306 75.5238 33.4824C74.5756 32.5343 73.081 31.9108 71.1942 32.0104C69.4939 32.0361 68.0154 32.5857 67.1314 33.5242L59.2116 41.9385C59.1312 42.0317 59.0059 42.067 58.8741 42.0381L36.7923 37.3617C35.7348 37.1368 34.6323 37.4517 33.8673 38.2199C33.0863 39.0009 32.7166 40.0776 32.8516 41.1703C32.9834 42.2631 33.6038 43.2176 34.6227 43.8315L49.8067 51.8665L50.5588 50.4459L49.8067 52.355L41.1283 61.7078L36.9498 59.8822C35.5902 59.2876 34.0473 59.5769 33.0027 60.6247C32.2956 61.3285 31.9356 62.3024 32.0095 63.2955C32.0866 64.2886 32.5881 65.1982 33.3916 65.7928L39.0872 69.9871C39.1997 70.0706 39.3026 70.1702 39.3797 70.2763L43.2625 75.6019C43.8507 76.4054 44.7572 76.9132 45.7504 76.9904ZM57.3955 55.9258C57.2348 55.9033 57.0709 55.8937 56.9102 55.8937C56.0198 55.8937 55.1584 56.2279 54.4931 56.8386L44.3264 66.2877C43.8282 66.7506 43.6772 67.4801 43.9504 68.1069L46.2293 73.3328C46.2903 73.4646 46.2614 73.6221 45.8661 73.6992L41.9768 68.3672C41.7036 67.9944 41.3758 67.6665 41.0029 67.3901L35.2784 62.8873C35.3812 62.7877 35.5387 62.762 35.6609 62.8166L40.8872 65.0986C41.514 65.375 42.2404 65.2207 42.7065 64.7193L52.1628 54.5309C52.8924 53.7403 53.2267 52.6764 53.0756 51.6094C52.9213 50.5456 52.3106 49.6167 51.311 49.0157L36.1269 40.9807L35.3748 42.4013L36.1141 40.4954L58.1959 45.1718C59.4141 45.4385 60.7062 45.0432 61.558 44.1304L69.4746 35.7226C69.6964 35.488 70.3425 35.2309 71.2424 35.218C72.1714 35.1762 72.9749 35.4751 73.2513 35.7515C73.5278 36.0279 73.7978 36.8057 73.7849 37.7603C73.7721 38.6634 73.5117 39.3126 73.2803 39.5344L64.8525 47.4762C63.9172 48.3472 63.5186 49.6617 63.8144 50.8895L68.8993 73.2043L70.0371 74.3388L68.4011 73.2171L59.9476 57.5874C59.3851 56.6747 58.4562 56.0704 57.3955 55.9258Z" fill="#017280"/>
</svg>
