<svg width="26" height="17" viewBox="0 0 26 17" fill="none" xmlns="http://www.w3.org/2000/svg">
<path d="M22.6445 7.375H20.625V5.3125C20.625 4.19531 19.6797 3.25 18.5625 3.25H11.6875L8.9375 0.5H2.0625C0.902344 0.5 0 1.44531 0 2.5625V14.9375C0 16.0977 0.902344 17 2.0625 17H19.25C19.9375 17 20.582 16.6562 20.9688 16.0547L24.4062 10.5547C25.2656 9.17969 24.2773 7.375 22.6445 7.375ZM2.0625 2.82031C2.0625 2.69141 2.14844 2.5625 2.32031 2.5625H8.07812L10.8281 5.3125H18.3047C18.4336 5.3125 18.5625 5.44141 18.5625 5.57031V7.375H6.53125C5.80078 7.375 5.11328 7.76172 4.72656 8.40625L2.0625 12.875V2.82031ZM19.25 14.9375H3.09375L6.40234 9.4375H22.6875L19.25 14.9375Z" fill="white"/>
</svg>
