<svg width="60" height="60" viewBox="0 0 60 60" fill="none" xmlns="http://www.w3.org/2000/svg">
<path d="M15.9938 58H16.0062C16.555 58 17 58.4478 17 59C17 59.5522 16.555 60 16.0062 60H15.9938C15.445 60 15 59.5522 15 59C15 58.4478 15.445 58 15.9938 58Z" fill="white"/>
<path fill-rule="evenodd" clip-rule="evenodd" d="M8.67188 11.5215L0.346172 19.7885C0.124569 20.0085 0 20.3079 0 20.6201V50.6836C0 53.3551 1.13191 55.7658 2.9393 57.4662L2.9525 57.4811C2.9624 57.4924 2.97228 57.5037 2.98301 57.5145C3.02004 57.5515 3.05941 57.5843 3.09984 57.6154C4.75008 59.0968 6.92941 60 9.31641 60H10.8984C11.5455 60 12.0703 59.4752 12.0703 58.8281C12.0703 58.181 11.5455 57.6562 10.8984 57.6562H9.31641C7.94449 57.6562 6.66504 57.2564 5.58539 56.5695L24.1048 38.05C27.3553 34.7993 32.6446 34.7993 35.8954 38.05L49.8742 52.0288H34.219C33.5719 52.0288 33.0471 52.5536 33.0471 53.2007C33.0471 53.8478 33.5719 54.3725 34.219 54.3725H52.2178L54.4147 56.5695C53.335 57.2564 52.0555 57.6562 50.6836 57.6562H21.3361C20.689 57.6562 20.1642 58.181 20.1642 58.8281C20.1642 59.4752 20.689 60 21.3361 60H50.6836C55.8206 60 60 55.8207 60 50.6836V20.6201C60 20.3093 59.8765 20.0113 59.6568 19.7913L51.3281 11.4628V4.6875C51.3281 2.10281 49.2253 0 46.6406 0H13.3594C10.7747 0 8.67188 2.10281 8.67188 4.6875V11.5215ZM2.83207 20.623L8.67188 14.8245V26.4628L2.83207 20.623ZM51.3281 14.7775V26.4628L57.1707 20.6201L51.3281 14.7775ZM57.6562 50.6836C57.6562 52.311 57.0943 53.8086 56.1564 54.9963L41.1328 39.9729L57.6562 23.4493V50.6836ZM22.4474 36.3927C26.6119 32.2284 33.3881 32.2284 37.5526 36.3927L39.4754 38.3155L48.9844 28.8066V4.6875C48.9844 3.39516 47.933 2.34375 46.6406 2.34375H13.3594C12.067 2.34375 11.0156 3.39516 11.0156 4.6875V28.8066L20.5246 38.3155L22.4474 36.3927ZM3.84375 54.9964C2.90566 53.8088 2.34375 52.311 2.34375 50.6836V23.4493L18.8672 39.9729L3.84375 54.9964Z" fill="white"/>
<path d="M29.1621 11H40.8379C41.4796 11 42 11.4478 42 12C42 12.5522 41.4796 13 40.8379 13H29.1621C28.5204 13 28 12.5522 28 12C28 11.4478 28.5204 11 29.1621 11Z" fill="white"/>
<path d="M23.292 11.293C23.479 11.107 23.737 11 24 11C24.263 11 24.521 11.1069 24.707 11.293C24.893 11.4791 25 11.737 25 12C25 12.263 24.8931 12.521 24.707 12.7069C24.52 12.893 24.263 13 24 13C23.737 13 23.479 12.893 23.292 12.7069C23.1061 12.521 23 12.263 23 12C23 11.737 23.1061 11.479 23.292 11.293Z" fill="white"/>
<path d="M19.1486 19H40.8514C41.4856 19 42 19.4478 42 20C42 20.5522 41.4856 21 40.8514 21H19.1486C18.5144 21 18 20.5522 18 20C18 19.4478 18.5144 19 19.1486 19Z" fill="white"/>
</svg>
