<svg width="15" height="15" viewBox="0 0 15 15" fill="none" xmlns="http://www.w3.org/2000/svg">
<path d="M12.0586 6C12.2773 6 12.4961 5.89062 12.6875 5.69922L13.8633 4.22266C14.0273 4.00391 14.0273 3.64844 13.8633 3.42969L12.6875 1.95312C12.5234 1.76172 12.2773 1.625 12.0586 1.625H7.65625V1.1875C7.65625 0.96875 7.4375 0.75 7.21875 0.75H6.78125C6.53516 0.75 6.34375 0.96875 6.34375 1.1875V1.625H1.53125C1.14844 1.625 0.875 2.00781 0.875 2.44531V5.17969C0.875 5.64453 1.14844 6 1.53125 6H6.34375V6.875H1.91406C1.69531 6.875 1.47656 7.01172 1.3125 7.20312L0.109375 8.67969C-0.0546875 8.89844 -0.0546875 9.25391 0.109375 9.47266L1.3125 10.9492C1.47656 11.1406 1.69531 11.25 1.91406 11.25H6.34375V14.3125C6.34375 14.5586 6.53516 14.75 6.78125 14.75H7.21875C7.4375 14.75 7.65625 14.5586 7.65625 14.3125V11.25H12.4688C12.8242 11.25 13.125 10.8945 13.125 10.4297V7.69531C13.125 7.25781 12.8242 6.875 12.4688 6.875H7.65625V6H12.0586ZM11.8125 9.9375H2.1875L1.47656 9.0625L2.1875 8.1875H11.8125V9.9375ZM2.1875 2.9375H11.7852L12.4961 3.8125L11.7852 4.6875H2.1875V2.9375Z" fill="#00008E"/>
</svg>
