<svg width="63" height="67" viewBox="0 0 63 67" fill="none" xmlns="http://www.w3.org/2000/svg">
    <path fill-rule="evenodd" clip-rule="evenodd" d="M6.43373 36.1304C6.53276 35.6857 6.83757 35.3142 7.25523 35.1285L18.613 30.3031C18.9609 30.1576 19.352 30.1521 19.7033 30.2888L31.5003 35.0441L43.2973 30.1058C43.6519 29.9647 44.0469 29.9647 44.4015 30.1058L55.7454 34.9449C56.1663 35.1263 56.4728 35.4999 56.5669 35.9469L62.9679 65.0829C63.0769 65.5872 62.9038 66.1108 62.5149 66.4514C62.126 66.7898 61.5816 66.8874 61.0987 66.7055L47.6305 61.711L31.9108 66.409C31.6524 66.4845 31.3786 66.4895 31.118 66.4233L15.3839 62.0351L1.90192 66.9172C1.41511 67.0908 0.871872 66.9872 0.483524 66.6471C0.0951767 66.307 -0.0774231 65.784 0.0326653 65.2802L6.43373 36.1304ZM42.6738 33.4215L32.9165 37.499V63.1638L46.1153 59.2132L42.6738 33.4215ZM20.397 33.6045L30.0841 37.5133V63.2063L16.9982 59.5378L20.397 33.6045ZM53.9607 37.2592L45.577 33.6751L48.9759 59.1994L59.6543 63.1638L53.9607 37.2592ZM17.5082 33.8305L14.152 59.4673L3.34633 63.3755L9.0393 37.4427L17.5082 33.8305Z" fill="white"/>
    <path fill-rule="evenodd" clip-rule="evenodd" d="M31.5 31C31.8816 31 32.2469 30.8418 32.5091 30.5629L40.373 22.3084C45.209 17.2001 45.209 8.93187 40.373 3.86598C38.0722 1.40166 34.8625 0.00276404 31.5027 8.1453e-06C28.1435 -0.00274775 24.9316 1.39119 22.627 3.8522C17.791 8.95998 17.791 17.2288 22.627 22.2941L30.4909 30.5629C30.7531 30.8418 31.1184 31 31.5 31ZM31.5 2.82205C34.0932 2.82205 36.5703 3.90512 38.3405 5.8133C42.1531 9.80659 42.1531 16.3254 38.3542 20.3468L31.5137 27.543L24.6595 20.3468C20.8469 16.3678 20.8469 9.83471 24.6595 5.8133C26.4297 3.90512 28.9068 2.82205 31.5 2.82205Z" fill="white"/>
    <path fill-rule="evenodd" clip-rule="evenodd" d="M26 12C26 15.3137 28.6863 18 32 18C35.3131 17.9984 37.9984 15.3131 38 12C38 8.68633 35.3137 6 32 6C28.6863 6 26 8.68633 26 12ZM28.7713 12C28.7713 10.2171 30.2171 8.77131 32 8.77131C33.7802 8.77835 35.2217 10.2198 35.2287 12C35.2287 13.7829 33.7829 15.2287 32 15.2287C30.2171 15.2287 28.7713 13.7829 28.7713 12Z" fill="white"/>
</svg>
