<svg width="75" height="129" viewBox="0 0 75 129" fill="none" xmlns="http://www.w3.org/2000/svg">
<path fill-rule="evenodd" clip-rule="evenodd" d="M75 69C75.0031 66.8771 74.1626 64.8406 72.6666 63.3396C71.1696 61.8396 69.1385 60.9969 67.0213 61H7.97874C5.86147 60.9969 3.83043 61.8396 2.33338 63.3396C0.837367 64.8406 -0.00309953 66.8771 1.72277e-05 69V121C-0.00309953 123.123 0.837367 125.159 2.33338 126.66C3.83043 128.16 5.86147 129.003 7.97874 129H67.0213C69.1385 129.003 71.1696 128.16 72.6666 126.66C74.1626 125.159 75.0031 123.123 75 121V69ZM30.8511 66.3333H44.1489V79.9063L30.8511 87.6667V66.3333ZM67.0483 123.933C68.511 123.933 69.6808 122.6 69.6808 121.133V69.1063C69.6808 67.6396 68.511 66.3333 67.0483 66.3333H49.4681V81.4531C49.4805 82.4052 48.9829 83.2906 48.1653 83.7729L29.4683 94.6271C29.0621 94.8563 28.6039 94.975 28.1385 94.9729C27.6804 94.9792 27.2305 94.8583 26.8347 94.6271C26.0171 94.1437 25.5195 93.2583 25.5319 92.3063V66.3333H7.95173C6.48896 66.3333 5.31916 67.6396 5.31916 69.1063V121.133C5.31916 122.6 6.48896 123.933 7.95173 123.933H67.0483Z" fill="#017280"/>
<path fill-rule="evenodd" clip-rule="evenodd" d="M37.5 59C36.7825 59 36.0959 58.6989 35.6028 58.1681L20.8187 42.458C11.7271 32.7357 11.7271 16.9994 20.8187 7.35784C25.1442 2.66767 31.1785 0.00526058 37.4938 1.55023e-05C43.8102 -0.00522958 49.8486 2.64774 54.1813 7.33161C63.2729 17.0529 63.2729 32.7903 54.1813 42.4307L39.3972 58.1681C38.9041 58.6989 38.2175 59 37.5 59ZM37.5 5.37099C32.6248 5.37099 27.9678 7.43232 24.6398 11.064C17.4721 18.6642 17.4721 31.0709 24.6141 38.7246L37.4732 52.4206L50.3602 38.7246C57.5279 31.1517 57.5279 18.7177 50.3602 11.064C47.0322 7.43232 42.3752 5.37099 37.5 5.37099Z" fill="#017280"/>
<path fill-rule="evenodd" clip-rule="evenodd" d="M49 21.5005C49 27.852 43.8512 33 37.5 33C31.1498 32.9979 26.0031 27.851 26 21.5005C26 15.149 31.1488 10 37.5 10C43.8512 10 49 15.149 49 21.5005ZM43.6883 21.5005C43.6883 18.082 40.9173 15.3119 37.5 15.3119C34.0879 15.3244 31.3252 18.0872 31.3117 21.5005C31.3117 24.918 34.0827 27.6881 37.5 27.6881C40.9173 27.6881 43.6883 24.918 43.6883 21.5005Z" fill="#017280"/>
</svg>
