<svg width="42" height="42" viewBox="0 0 42 42" fill="none" xmlns="http://www.w3.org/2000/svg">
<path d="M25.549 17.2306L19.4065 22.9815L16.4585 19.9752C16.1317 19.6417 15.5936 19.6341 15.2575 19.9581C14.921 20.2824 14.9134 20.8155 15.2402 21.149L18.7758 24.7468C19.1043 25.0744 19.6351 25.0856 19.9772 24.7719L26.7334 18.4551C26.8975 18.3017 26.9933 18.0899 26.9997 17.8666C27.006 17.6432 26.9225 17.4265 26.7674 17.2642C26.4386 16.9254 25.8964 16.9106 25.549 17.2306Z" fill="#017280"/>
<path fill-rule="evenodd" clip-rule="evenodd" d="M8 20.9998C8 13.83 13.83 8 20.9998 8C28.17 8 34 13.83 34 20.9998C34 28.17 28.17 34 20.9998 34C13.83 34 8 28.17 8 20.9998ZM9.74029 20.9998C9.74029 27.204 14.7871 32.2597 20.9998 32.2597C27.2186 32.2597 32.2597 27.2183 32.2597 20.9998C32.2597 14.7814 27.2186 9.74029 20.9998 9.74029C14.7871 9.74029 9.74029 14.7956 9.74029 20.9998Z" fill="#017280"/>
<path fill-rule="evenodd" clip-rule="evenodd" d="M39.2985 10.9977L39.0094 16.1881L41.8556 20.5207C42.0481 20.8127 42.0481 21.1916 41.8556 21.4835L38.992 25.8161L39.281 31.0065C39.2975 31.3543 39.109 31.6791 38.7994 31.8381L34.1755 34.175L31.8373 38.7965C31.681 39.1086 31.354 39.298 31.0054 39.2779L25.8122 38.9889L21.4774 41.851C21.1869 42.0497 20.8045 42.0497 20.5141 41.851L16.1792 38.9889L10.9861 39.2779C10.6382 39.2943 10.3128 39.1062 10.1541 38.7965L7.81598 34.175L3.19205 31.8381C2.87939 31.6821 2.69022 31.3549 2.7104 31.0065L2.99946 25.8161L0.144444 21.475C-0.0481481 21.1827 -0.0481481 20.8042 0.144444 20.5122L3.00801 16.1796L2.7193 10.9892C2.70288 10.6415 2.89102 10.3163 3.20095 10.1577L7.82453 7.82077L10.163 3.19927C10.319 2.88677 10.646 2.69736 10.995 2.71787L16.1878 3.00678L20.5226 0.144368C20.8151 -0.0481228 21.1938 -0.0481228 21.4859 0.144368L25.8208 3.00678L31.0228 2.72642C31.3704 2.71001 31.6957 2.89839 31.8548 3.20782L34.1929 7.82931L38.8168 10.1662C39.1292 10.3221 39.3187 10.6493 39.2985 10.9977ZM37.2405 25.6325C37.2241 25.4435 37.2737 25.2551 37.3804 25.0985L40.0866 21.0021L37.3804 16.9058C37.2826 16.7454 37.2337 16.5598 37.2405 16.3721L37.5118 11.4617L33.142 9.25607C32.9754 9.17265 32.8403 9.0376 32.7569 8.87109L30.5497 4.50328L25.6371 4.77476C25.4483 4.79117 25.2594 4.74159 25.1028 4.63458L21.0043 1.93013L16.9061 4.63458C16.7454 4.7327 16.5596 4.78125 16.3718 4.77476L11.4588 4.50328L9.25204 8.87109C9.16857 9.0376 9.03345 9.17265 8.86686 9.25607L4.49676 11.4617L4.76837 16.3721C4.78479 16.5608 4.73519 16.7496 4.62812 16.9058L1.92225 21.0021L4.62812 25.0985C4.72629 25.2588 4.77521 25.4445 4.76837 25.6325L4.49676 30.5426L8.87541 32.7397C9.04235 32.8231 9.17747 32.9581 9.26093 33.1246L11.4677 37.4924L16.3807 37.221H16.4245C16.5962 37.2217 16.7638 37.2736 16.9061 37.3697L21.0043 40.0745L25.1028 37.3697C25.2632 37.2716 25.4489 37.223 25.6371 37.2299L30.5497 37.501L32.7569 33.1335C32.8403 32.967 32.9754 32.8316 33.142 32.7482L37.5118 30.5426L37.2405 25.6325Z" fill="#017280"/>
</svg>
