<svg width="41" height="42" viewBox="0 0 41 42" fill="none" xmlns="http://www.w3.org/2000/svg">
<path fill-rule="evenodd" clip-rule="evenodd" d="M35.2264 39.9905H39.9867C40.2558 39.9893 40.5141 40.0943 40.7045 40.2821C40.8948 40.4698 41.0012 40.7247 41 40.9901C40.9984 41.5475 40.5409 41.9984 39.9763 42H1.02372C0.458275 42 0 41.5479 0 40.9901C0 40.4327 0.458275 39.9803 1.02372 39.9803H5.79441L2.82563 30.2252C2.44893 28.9763 2.918 27.6296 3.99251 26.8726L7.50395 24.4185V13.411C7.51394 12.299 8.43409 11.4043 9.56178 11.4114H9.8585V8.19014C9.8585 7.06903 10.8206 6.16016 11.9467 6.16016H16.1032V2.0501C16.1136 0.926233 17.0317 0.0157791 18.171 0H29.0636C30.2069 0.0142012 31.1319 0.922288 31.1519 2.0501V11.4114H31.4486C31.9908 11.4063 32.5123 11.6146 32.8986 11.9897C33.2849 12.3649 33.5036 12.8761 33.5064 13.411V24.4185L37.0179 26.8824C38.0968 27.6367 38.5666 28.9866 38.1847 30.2351L35.2264 39.9905ZM33.0765 39.9905L36.2193 29.6497C36.3433 29.2323 36.1873 28.7834 35.8302 28.5286L21.5289 18.5207V39.9905H33.0765ZM18.1506 2.01972H29.1044V11.4114H21.1194V8.19014C21.1274 7.65799 20.9203 7.14477 20.5436 6.76371C20.1673 6.38304 19.6522 6.16568 19.1128 6.16016H18.1506V2.01972ZM19.072 8.17988H11.9059V11.4114H19.072V8.17988ZM9.55139 13.4312H31.459V22.9846L21.099 15.7436C20.7443 15.4911 20.2661 15.4911 19.9114 15.7436L9.55139 22.9846V13.4312ZM5.18018 28.5286C4.82308 28.7834 4.66712 29.2323 4.79109 29.6497L7.93383 39.9905H19.4815V18.5207L5.18018 28.5286Z" fill="white"/>
</svg>
