<svg width="43" height="44" viewBox="0 0 43 44" fill="none" xmlns="http://www.w3.org/2000/svg">
    <path fill-rule="evenodd" clip-rule="evenodd" d="M36.9447 41.8948H41.9372C42.2195 41.8936 42.4904 42.0035 42.69 42.2002C42.8897 42.397 43.0012 42.6639 43 42.9421C42.9983 43.526 42.5185 43.9983 41.9263 44H1.07366C0.480629 44 0 43.5264 0 42.9421C0 42.3581 0.480629 41.8841 1.07366 41.8841H6.07707L2.96346 31.6645C2.56839 30.3562 3.06034 28.9453 4.18726 28.1522L7.86999 25.5813V14.0497C7.88048 12.8847 8.84551 11.9474 10.0282 11.9548H10.3394V8.58014C10.3394 7.40565 11.3485 6.4535 12.5295 6.4535H16.8887V2.14772C16.8996 0.970339 17.8626 0.0165305 19.0574 0H30.4814C31.6804 0.0148774 32.6505 0.966206 32.6715 2.14772V11.9548H32.9827C33.5514 11.9495 34.0983 12.1677 34.5034 12.5607C34.9085 12.9537 35.138 13.4893 35.1409 14.0497V25.5813L38.8236 28.1626C39.9552 28.9527 40.4479 30.3669 40.0474 31.6749L36.9447 41.8948ZM34.69 41.8948L37.9861 31.0616C38.1161 30.6244 37.9525 30.1541 37.578 29.8871L22.5791 19.4026V41.8948H34.69ZM19.036 2.1159H30.5242V11.9548H22.1496V8.58014C22.158 8.02265 21.9408 7.485 21.5457 7.08579C21.1511 6.68699 20.6109 6.45928 20.0451 6.4535H19.036V2.1159ZM20.0023 8.5694H12.4867V11.9548H20.0023V8.5694ZM10.0173 14.0707H32.9936V24.0791L22.1282 16.4933C21.7562 16.2288 21.2546 16.2288 20.8826 16.4933L10.0173 24.0791V14.0707ZM5.43287 29.8871C5.05835 30.1541 4.89479 30.6244 5.0248 31.0616L8.32084 41.8948H20.4318V19.4026L5.43287 29.8871Z" fill="white"/>
</svg>
