<svg width="31" height="44" viewBox="0 0 31 44" fill="none" xmlns="http://www.w3.org/2000/svg">
<path fill-rule="evenodd" clip-rule="evenodd" d="M16.854 0.247575L28.5808 4.73709C30.0388 5.30224 30.9996 6.70296 31 8.2643V28.3533C30.9993 29.3484 30.601 30.3026 29.893 31.0037C29.1854 31.7044 28.2268 32.0949 27.2294 32.0883H26.5679L30.9147 42.6703C31.1144 43.1573 30.8878 43.7144 30.4046 43.9247C30.2909 43.973 30.1691 43.9988 30.0454 43.9999C29.6649 44.0039 29.3205 43.7763 29.1762 43.4248L28.3069 41.3311H2.67966L1.81 43.4248C1.66678 43.7759 1.32054 44.0014 0.940715 43.9907C0.817427 43.9892 0.695247 43.9634 0.581557 43.9152C0.100587 43.7077 -0.126424 43.1547 0.0714266 42.6703L4.43706 32.0883H3.77559C2.77822 32.0967 1.81849 31.7066 1.11014 31.0051C0.402162 30.3037 0.00424595 29.3491 0.00535325 28.3533V8.2643C0.00572235 6.70296 0.966184 5.30224 2.42423 4.73709L14.1513 0.247575C15.0217 -0.0825251 15.9833 -0.0825251 16.854 0.247575ZM29.1101 8.2643C29.1097 7.48363 28.6295 6.78327 27.9005 6.5007L16.4476 2.11507V16.6299L29.1101 12.8386V8.2643ZM3.10489 6.5007L14.5577 2.11507V16.4884L1.89527 11.2636V8.27388C1.8949 7.49063 2.37476 6.78732 3.10489 6.5007ZM4.63565 36.6154L3.46368 39.4448H27.5413L26.3697 36.6154H4.63565ZM25.5853 34.7291H5.42004L6.47832 32.0883H24.5174L25.5853 34.7291ZM3.76636 30.202H27.2294C27.7259 30.2101 28.2046 30.0189 28.5582 29.6715C28.9119 29.3237 29.1108 28.8488 29.1101 28.3533V14.8096L15.7577 18.8087C15.6721 18.8356 15.5828 18.8485 15.4931 18.8463C15.3698 18.8448 15.2476 18.8194 15.1339 18.7708L1.88567 13.3005V28.3533C1.88641 28.8481 2.08574 29.3222 2.43899 29.6696C2.79261 30.0167 3.27026 30.2086 3.76636 30.202Z" fill="white"/>
<path fill-rule="evenodd" clip-rule="evenodd" d="M3 23.5002C3 21.5672 4.56717 20 6.50019 20C8.43207 20.0027 9.99735 21.5679 10 23.5002C10 25.4332 8.43321 27 6.50019 27C4.56717 27 3 25.4332 3 23.5002ZM4.93908 23.5002C4.93908 24.3622 5.63783 25.0609 6.50019 25.0609C6.91414 25.0613 7.31142 24.8969 7.60418 24.6042C7.89693 24.3114 8.0613 23.9141 8.06092 23.5002C8.06092 22.6378 7.36217 21.9391 6.50019 21.9391C5.63783 21.9391 4.93908 22.6378 4.93908 23.5002Z" fill="white"/>
<path fill-rule="evenodd" clip-rule="evenodd" d="M21 23.5002C21 21.5672 22.5671 20 24.5 20C26.4318 20.0027 27.9973 21.5679 28 23.5002C28 25.4332 26.4329 27 24.5 27C22.5671 27 21 25.4332 21 23.5002ZM22.939 23.5002C22.939 24.3622 23.6381 25.0609 24.5 25.0609C24.9139 25.0613 25.3112 24.8969 25.6039 24.6042C25.8967 24.3114 26.061 23.9141 26.061 23.5002C26.061 22.6378 25.3619 21.9391 24.5 21.9391C23.6381 21.9391 22.939 22.6378 22.939 23.5002Z" fill="white"/>
<path d="M18.9888 21H12.0112C11.4527 21 11 21.4477 11 22C11 22.552 11.4527 23 12.0112 23H18.9888C19.5473 23 20 22.552 20 22C20 21.4477 19.5473 21 18.9888 21Z" fill="white"/>
<path d="M18.9888 24H12.0112C11.4527 24 11 24.4477 11 25C11 25.552 11.4527 26 12.0112 26H18.9888C19.5473 26 20 25.552 20 25C20 24.4477 19.5473 24 18.9888 24Z" fill="white"/>
</svg>
