<svg width="48" height="42" viewBox="0 0 48 42" fill="none" xmlns="http://www.w3.org/2000/svg">
<path fill-rule="evenodd" clip-rule="evenodd" d="M24.6012 0.187689L47.5859 16.8447C48.0267 17.1696 48.1317 17.7909 47.8229 18.2461C47.6391 18.5088 47.3408 18.6656 47.0227 18.6664C46.8166 18.6664 46.6159 18.5995 46.4495 18.4764L42.2892 15.453V40.9489C42.2892 41.4995 41.8249 42 41.2814 42H6.72567C6.17215 42 5.71783 41.4995 5.71783 40.9489V15.4632L1.55755 18.4662C1.11558 18.7868 0.500684 18.6836 0.184165 18.2359C-0.132353 17.7882 -0.0308354 17.1653 0.411518 16.8447L23.4552 0.187689C23.7972 -0.0625629 24.2592 -0.0625629 24.6012 0.187689ZM15.2041 24.2822H32.7933V20.8788H15.2041V24.2822ZM15.2041 26.2842H32.7933V29.6876H15.2041V26.2842ZM32.7933 31.6896H15.2041V34.993H32.7933V31.6896ZM15.2041 36.995H32.7933V39.998H15.2041V36.995ZM34.7696 39.998H40.3033V14.0219L24.0284 2.23975L7.69414 14.0317V39.998H13.2278V19.8778C13.2294 19.3253 13.6709 18.8783 14.216 18.8768H33.7814C34.3265 18.8783 34.768 19.3253 34.7696 19.8778V39.998Z" fill="#017280"/>
</svg>
