<svg width="42" height="44" viewBox="0 0 42 44" fill="none" xmlns="http://www.w3.org/2000/svg">
<path fill-rule="evenodd" clip-rule="evenodd" d="M39.9206 6.53116C40.8961 6.86977 41.6398 7.67611 41.9035 8.6814C42.1051 9.47852 41.9882 10.3234 41.5771 11.0342C41.1673 11.7345 40.4951 12.2391 39.7115 12.4338L30.1918 14.8792L22.2778 25.7569C21.7311 26.5092 20.9413 27.0461 20.0443 27.2747L17.4173 27.9493C17.2863 27.9829 17.1513 27.9997 17.016 28C16.4854 28 15.9883 27.7385 15.6851 27.3001C15.3815 26.8613 15.3099 26.301 15.4933 25.799L18.346 17.9234L14.1381 19.0028C13.4323 19.181 12.7075 19.2716 11.9797 19.2725C11.4209 19.2742 10.8635 19.2205 10.3151 19.1121L4.94451 18.0581C3.4276 17.7593 2.21656 16.6075 1.83259 15.0985L0.0255042 7.95642C-0.0287411 7.7387 0.00426354 7.50845 0.117656 7.31543C0.228761 7.12208 0.412737 6.98209 0.627757 6.92741L2.46001 6.4554C3.01912 6.31343 3.61092 6.4801 4.0158 6.89382L6.86858 9.81153C7.44894 10.4008 8.29464 10.6383 9.09362 10.4354L15.9785 8.66461L9.96383 3.64737C9.48935 3.25737 9.27563 2.62989 9.41157 2.02843C9.54718 1.42598 10.006 0.950671 10.5994 0.797176L13.2097 0.12259C14.077 -0.0971116 14.9923 -0.0200348 15.8112 0.341962L27.7069 5.64577L30.6182 4.89542C32.2296 4.48237 33.9242 4.541 35.5039 5.06407L39.904 6.52292C39.9125 6.53116 39.9125 6.53116 39.9206 6.53116ZM13.6195 1.7501L11.1013 2.39932L17.9862 8.1501L25.0888 6.31212L15.1338 1.87658C14.6567 1.66709 14.1244 1.62262 13.6195 1.7501ZM20.9227 24.7368C20.6047 25.1739 20.1466 25.4868 19.626 25.6222L17.0827 26.2714L20.3034 17.4006L27.6318 15.5116L20.9227 24.7368ZM39.2932 10.7813C39.6471 10.6917 39.951 10.4641 40.1383 10.1488C40.3226 9.83327 40.3739 9.45678 40.2804 9.10302C40.1559 8.64781 39.8187 8.28284 39.3769 8.12507L34.985 6.66621C33.7086 6.24262 32.3387 6.19584 31.0365 6.53116L9.51189 12.0711C8.1355 12.4153 6.68068 12.0056 5.68074 10.9921L2.85312 8.0997L1.85743 8.35267L3.45537 14.6769C3.67562 15.5551 4.37983 16.2257 5.26246 16.397L10.6331 17.451C11.6562 17.648 12.7101 17.6164 13.7198 17.3585L39.2932 10.7813Z" fill="white"/>
<path d="M36.1688 42H4.83123C4.37211 42 4 42.4477 4 43C4 43.552 4.37211 44 4.83123 44H36.1688C36.6279 44 37 43.552 37 43C37 42.4477 36.6279 42 36.1688 42Z" fill="white"/>
<path d="M21.5466 37H4.4534C4.20297 37 4 37.4477 4 38C4 38.552 4.20297 39 4.4534 39H21.5466C21.797 39 22 38.552 22 38C22 37.4477 21.797 37 21.5466 37Z" fill="white"/>
<path d="M13.7481 32H4.25189C4.11276 32 4 32.4477 4 33C4 33.552 4.11276 34 4.25189 34H13.7481C13.8872 34 14 33.552 14 33C14 32.4477 13.8872 32 13.7481 32Z" fill="white"/>
</svg>
