<svg width="13" height="12" viewBox="0 0 13 12" fill="none" xmlns="http://www.w3.org/2000/svg">
<path d="M12.0527 5.92383C12.2188 5.75781 12.2188 5.52539 12.0527 5.35938L7.20508 0.445312C7.03906 0.279297 6.77344 0.279297 6.64062 0.445312L5.97656 1.10938C5.81055 1.24219 5.81055 1.50781 5.97656 1.67383L9.89453 5.625L5.97656 9.60938C5.81055 9.77539 5.81055 10.0078 5.97656 10.1738L6.64062 10.8379C6.77344 11.0039 7.03906 11.0039 7.20508 10.8379L12.0527 5.92383ZM6.74023 5.35938L1.89258 0.445312C1.72656 0.279297 1.46094 0.279297 1.32812 0.445312L0.664062 1.10938C0.498047 1.24219 0.498047 1.50781 0.664062 1.67383L4.58203 5.625L0.664062 9.60938C0.498047 9.77539 0.498047 10.0078 0.664062 10.1738L1.32812 10.8379C1.46094 11.0039 1.72656 11.0039 1.89258 10.8379L6.74023 5.92383C6.90625 5.75781 6.90625 5.52539 6.74023 5.35938Z" fill="#00008E"/>
</svg>
