<svg width="80" height="77" viewBox="0 0 80 77" fill="none" xmlns="http://www.w3.org/2000/svg">
<path fill-rule="evenodd" clip-rule="evenodd" d="M8.33331 77H68.3336C68.9636 77 69.5403 76.6331 69.8236 76.0503L79.8236 55.4789C80.0836 54.9474 80.0536 54.3166 79.7503 53.8126C79.447 53.3086 78.9103 53 78.3336 53H56.6669C55.7469 53 55.0002 53.768 55.0002 54.7143C55.0002 59.4423 51.2602 63.2857 46.6668 63.2857H1.66661C1.04995 63.2857 0.486609 63.6354 0.196608 64.1874C-0.0933933 64.7463 -0.0600598 65.4251 0.279942 65.9497L6.94664 76.2354C7.25664 76.712 7.77664 77 8.33331 77ZM67.3036 73.5714H9.22665L4.77996 66.7143H46.6668C52.5335 66.7143 57.4035 62.2366 58.2135 56.4286H75.637L67.3036 73.5714Z" fill="#00008E"/>
<path d="M47.6667 67H32.6667C31.7467 67 31 66.244 31 65.3125V41.6875C31 40.756 31.7467 40 32.6667 40H59.3333C60.2533 40 61 40.756 61 41.6875V55.1875C61 56.119 60.2533 56.875 59.3333 56.875C58.4133 56.875 57.6667 56.119 57.6667 55.1875V43.375H34.3333V63.625H47.6667C48.5867 63.625 49.3333 64.381 49.3333 65.3125C49.3333 66.244 48.5867 67 47.6667 67Z" fill="#00008E"/>
<path d="M40.5 60C39.672 60 39 59.272 39 58.375V48.625C39 47.728 39.672 47 40.5 47C41.328 47 42 47.728 42 48.625V58.375C42 59.272 41.328 60 40.5 60Z" fill="#00008E"/>
<path d="M47.6667 67H32.6667C31.7467 67 31 66.244 31 65.3125V41.6875C31 40.756 31.7467 40 32.6667 40H59.3333C60.2533 40 61 40.756 61 41.6875V55.1875C61 56.119 60.2533 56.875 59.3333 56.875C58.4133 56.875 57.6667 56.119 57.6667 55.1875V43.375H34.3333V63.625H47.6667C48.5867 63.625 49.3333 64.381 49.3333 65.3125C49.3333 66.244 48.5867 67 47.6667 67Z" fill="#00008E"/>
<path d="M50.5 60C49.672 60 49 59.272 49 58.375V48.625C49 47.728 49.672 47 50.5 47C51.328 47 52 47.728 52 48.625V58.375C52 59.272 51.328 60 50.5 60Z" fill="#00008E"/>
<path d="M40.5 60C39.672 60 39 59.272 39 58.375V48.625C39 47.728 39.672 47 40.5 47C41.328 47 42 47.728 42 48.625V58.375C42 59.272 41.328 60 40.5 60Z" fill="#00008E"/>
<path fill-rule="evenodd" clip-rule="evenodd" d="M4.66667 67H31.3333C32.2533 67 33 66.244 33 65.3125V41.6875C33 40.756 32.2533 40 31.3333 40H4.66667C3.74667 40 3 40.756 3 41.6875V65.3125C3 66.244 3.74667 67 4.66667 67ZM29.6667 63.625H6.33333V43.375H29.6667V63.625Z" fill="#00008E"/>
<path d="M12.5 60C11.672 60 11 59.272 11 58.375V48.625C11 47.728 11.672 47 12.5 47C13.328 47 14 47.728 14 48.625V58.375C14 59.272 13.328 60 12.5 60Z" fill="#00008E"/>
<path fill-rule="evenodd" clip-rule="evenodd" d="M4.66667 67H31.3333C32.2533 67 33 66.244 33 65.3125V41.6875C33 40.756 32.2533 40 31.3333 40H4.66667C3.74667 40 3 40.756 3 41.6875V65.3125C3 66.244 3.74667 67 4.66667 67ZM29.6667 63.625H6.33333V43.375H29.6667V63.625Z" fill="#00008E"/>
<path d="M23.5 60C22.672 60 22 59.272 22 58.375V48.625C22 47.728 22.672 47 23.5 47C24.328 47 25 47.728 25 48.625V58.375C25 59.272 24.328 60 23.5 60Z" fill="#00008E"/>
<path d="M12.5 60C11.672 60 11 59.272 11 58.375V48.625C11 47.728 11.672 47 12.5 47C13.328 47 14 47.728 14 48.625V58.375C14 59.272 13.328 60 12.5 60Z" fill="#00008E"/>
<path fill-rule="evenodd" clip-rule="evenodd" d="M4.66667 44H31.3333C32.2533 44 33 43.232 33 42.2857V21.7143C33 20.768 32.2533 20 31.3333 20H4.66667C3.74667 20 3 20.768 3 21.7143V42.2857C3 43.232 3.74667 44 4.66667 44ZM29.6667 40.5714H6.33333V23.4286H29.6667V40.5714Z" fill="#00008E"/>
<path d="M12.5 37C11.672 37 11 36.2533 11 35.3333V28.6667C11 27.7467 11.672 27 12.5 27C13.328 27 14 27.7467 14 28.6667V35.3333C14 36.2533 13.328 37 12.5 37Z" fill="#00008E"/>
<path fill-rule="evenodd" clip-rule="evenodd" d="M4.66667 44H31.3333C32.2533 44 33 43.232 33 42.2857V21.7143C33 20.768 32.2533 20 31.3333 20H4.66667C3.74667 20 3 20.768 3 21.7143V42.2857C3 43.232 3.74667 44 4.66667 44ZM29.6667 40.5714H6.33333V23.4286H29.6667V40.5714Z" fill="#00008E"/>
<path d="M23.5 37C22.672 37 22 36.2533 22 35.3333V28.6667C22 27.7467 22.672 27 23.5 27C24.328 27 25 27.7467 25 28.6667V35.3333C25 36.2533 24.328 37 23.5 37Z" fill="#00008E"/>
<path d="M12.5 37C11.672 37 11 36.2533 11 35.3333V28.6667C11 27.7467 11.672 27 12.5 27C13.328 27 14 27.7467 14 28.6667V35.3333C14 36.2533 13.328 37 12.5 37Z" fill="#00008E"/>
<path fill-rule="evenodd" clip-rule="evenodd" d="M4.66667 24H31.3333C32.2533 24 33 23.232 33 22.2857V1.71429C33 0.768 32.2533 0 31.3333 0H4.66667C3.74667 0 3 0.768 3 1.71429V22.2857C3 23.232 3.74667 24 4.66667 24ZM29.6667 20.5714H6.33333V3.42857H29.6667V20.5714Z" fill="#00008E"/>
<path d="M12.5 16C11.672 16 11 15.2533 11 14.3333V7.66667C11 6.74667 11.672 6 12.5 6C13.328 6 14 6.74667 14 7.66667V14.3333C14 15.2533 13.328 16 12.5 16Z" fill="#00008E"/>
<path fill-rule="evenodd" clip-rule="evenodd" d="M4.66667 24H31.3333C32.2533 24 33 23.232 33 22.2857V1.71429C33 0.768 32.2533 0 31.3333 0H4.66667C3.74667 0 3 0.768 3 1.71429V22.2857C3 23.232 3.74667 24 4.66667 24ZM29.6667 20.5714H6.33333V3.42857H29.6667V20.5714Z" fill="#00008E"/>
<path d="M23.5 16C22.672 16 22 15.2533 22 14.3333V7.66667C22 6.74667 22.672 6 23.5 6C24.328 6 25 6.74667 25 7.66667V14.3333C25 15.2533 24.328 16 23.5 16Z" fill="#00008E"/>
<path d="M12.5 16C11.672 16 11 15.2533 11 14.3333V7.66667C11 6.74667 11.672 6 12.5 6C13.328 6 14 6.74667 14 7.66667V14.3333C14 15.2533 13.328 16 12.5 16Z" fill="#00008E"/>
<path fill-rule="evenodd" clip-rule="evenodd" d="M32.6667 44H59.3333C60.2533 44 61 43.232 61 42.2857V21.7143C61 20.768 60.2533 20 59.3333 20H32.6667C31.7467 20 31 20.768 31 21.7143V42.2857C31 43.232 31.7467 44 32.6667 44ZM57.6667 40.5714H34.3333V23.4286H57.6667V40.5714Z" fill="#00008E"/>
<path d="M50.5 37C49.672 37 49 36.2533 49 35.3333V28.6667C49 27.7467 49.672 27 50.5 27C51.328 27 52 27.7467 52 28.6667V35.3333C52 36.2533 51.328 37 50.5 37Z" fill="#00008E"/>
<path d="M40.5 37C39.672 37 39 36.2533 39 35.3333V28.6667C39 27.7467 39.672 27 40.5 27C41.328 27 42 27.7467 42 28.6667V35.3333C42 36.2533 41.328 37 40.5 37Z" fill="#00008E"/>
<path d="M71.5 58C70.672 58 70 57.216 70 56.25V38.75C70 37.784 70.672 37 71.5 37C72.328 37 73 37.784 73 38.75V56.25C73 57.216 72.328 58 71.5 58Z" fill="#00008E"/>
</svg>
