<svg width="17" height="16" viewBox="0 0 17 16" fill="none" xmlns="http://www.w3.org/2000/svg">
<path d="M1.38281 7.80469L6.19531 12.6172C7.01562 13.4648 8.4375 12.8633 8.4375 11.6875V9.55469C12.4297 9.80078 12.7578 10.9219 12.1016 13.0547C11.7188 14.2578 13.0586 15.2148 14.0703 14.5312C15.6836 13.4648 16.75 11.7969 16.75 9.80078C16.75 5.125 12.1836 4.38672 8.4375 4.27734V2.08984C8.4375 0.914062 7.01562 0.3125 6.19531 1.16016L1.38281 5.97266C0.863281 6.46484 0.863281 7.3125 1.38281 7.80469ZM2.3125 6.875L7.125 2.0625V5.58984C11.0352 5.58984 15.4375 5.89062 15.4375 9.80078C15.4375 11.6328 14.3438 12.7812 13.332 13.4375C14.6992 9.11719 11.6094 8.24219 7.125 8.21484V11.6875L2.3125 6.875Z" fill="#017280"/>
</svg>
