<svg width="41" height="45" viewBox="0 0 41 45" fill="none" xmlns="http://www.w3.org/2000/svg">
<path fill-rule="evenodd" clip-rule="evenodd" d="M13.5 0C16.0599 0 18.1429 2.10296 18.1429 4.68747V33.8736C19.328 35.1003 20 36.741 20 38.4375C20 42.0557 17.0837 45 13.5 45C9.9163 45 7 42.0557 7 38.4375C7 36.741 7.67188 35.1003 8.85712 33.8736V4.68747C8.85712 2.10296 10.94 0 13.5 0ZM8.85712 38.4376C8.85712 41.0221 10.9401 43.125 13.5 43.125C16.0599 43.125 18.1429 41.0221 18.143 38.4375C18.143 37.11 17.5925 35.8777 16.5923 34.9685C16.3973 34.79 16.2858 34.5373 16.2858 34.2718V4.68747C16.2858 3.13655 15.0362 1.87497 13.5 1.87497C11.9639 1.87497 10.7143 3.13655 10.7143 4.68747V34.2719C10.7143 34.5374 10.6028 34.7901 10.4078 34.9686C9.40756 35.8777 8.85712 37.1101 8.85712 38.4376Z" fill="#017280"/>
<path fill-rule="evenodd" clip-rule="evenodd" d="M14.3334 19.9584V36.4265C15.3012 36.8235 16 37.8773 16 39.125C16 40.7104 14.8786 42 13.5 42C12.1214 42 11 40.7104 11 39.125C11 37.8773 11.6988 36.8235 12.6666 36.4265V19.9584C12.6666 19.4286 13.0394 19 13.5 19C13.9606 19 14.3334 19.4286 14.3334 19.9584ZM12.6666 39.125C12.6666 39.6538 13.0402 40.0834 13.5 40.0834C13.9598 40.0834 14.3334 39.6538 14.3334 39.125C14.3334 38.5962 13.9598 38.1666 13.5 38.1666C13.0402 38.1666 12.6666 38.5963 12.6666 39.125Z" fill="#017280"/>
<path d="M6.12498 30H0.875021C0.391368 30 0 30.4473 0 31C0 31.5527 0.391368 32 0.875021 32H6.12498C6.60863 32 7 31.5527 7 31C7 30.4473 6.60863 30 6.12498 30Z" fill="#017280"/>
<path d="M5.99998 26H4.00002C3.44728 26 3 26.4473 3 27C3 27.5527 3.44728 28 4.00002 28H5.99998C6.55272 28 7 27.5527 7 27C7 26.4473 6.55272 26 5.99998 26Z" fill="#017280"/>
<path d="M5.99998 23H4.00002C3.44728 23 3 23.4473 3 24C3 24.5527 3.44728 25 4.00002 25H5.99998C6.55272 25 7 24.5527 7 24C7 23.4473 6.55272 23 5.99998 23Z" fill="#017280"/>
<path d="M0.875021 20H6.12498C6.60863 20 7 19.5527 7 19C7 18.4473 6.60863 18 6.12498 18H0.875021C0.391368 18 0 18.4473 0 19C0 19.5527 0.391368 20 0.875021 20Z" fill="#017280"/>
<path d="M0.875021 10H6.12498C6.60863 10 7 9.55273 7 9C7 8.44727 6.60863 8 6.12498 8H0.875021C0.391368 8 0 8.44727 0 9C0 9.55273 0.391368 10 0.875021 10Z" fill="#017280"/>
<path d="M5.99998 15H4.00002C3.44728 15 3 15.4473 3 16C3 16.5527 3.44728 17 4.00002 17H5.99998C6.55272 17 7 16.5527 7 16C7 15.4473 6.55272 15 5.99998 15Z" fill="#017280"/>
<path d="M5.99998 11H4.00002C3.44728 11 3 11.4473 3 12C3 12.5527 3.44728 13 4.00002 13H5.99998C6.55272 13 7 12.5527 7 12C7 11.4473 6.55272 11 5.99998 11Z" fill="#017280"/>
<path d="M26.9999 14.8889H28.9999C30.6542 14.8889 31.9999 16.1598 31.9999 17.7222C31.9999 18.2443 32.4472 18.6667 33 18.6667C33.5527 18.6667 34 18.2443 34 17.7222C34 15.1185 31.7568 13 29 13H27C24.2432 13 22 15.1185 22 17.7222V25.2778C22 27.8815 24.2432 30 27 30H28.9999C31.7567 30 33.9999 27.8815 33.9999 25.2778C33.9999 24.7557 33.5526 24.3333 32.9999 24.3333C32.4471 24.3333 31.9999 24.7557 31.9999 25.2778C31.9999 26.8402 30.6542 28.1111 28.9999 28.1111H26.9999C25.3456 28.1111 23.9999 26.8402 23.9999 25.2778V17.7222C23.9999 16.1598 25.3456 14.8889 26.9999 14.8889Z" fill="#017280"/>
<path fill-rule="evenodd" clip-rule="evenodd" d="M36 15.5C36 14.1214 37.1214 13 38.5 13C39.8786 13 41 14.1215 41 15.5C41 16.8786 39.8786 18 38.5 18C37.1214 18 36 16.8786 36 15.5ZM37.6666 15.5C37.6666 15.9598 38.0402 16.3334 38.5 16.3334C38.9598 16.3334 39.3333 15.9598 39.3334 15.5C39.3334 15.0402 38.9598 14.6666 38.5 14.6666C38.0402 14.6666 37.6666 15.0402 37.6666 15.5Z" fill="#017280"/>
</svg>
