<svg width="17" height="17" viewBox="0 0 17 17" fill="none" xmlns="http://www.w3.org/2000/svg">
<path d="M8.5 0.390625C3.95117 0.390625 0.265625 4.10938 0.265625 8.625C0.265625 13.1738 3.95117 16.8594 8.5 16.8594C13.0156 16.8594 16.7344 13.1738 16.7344 8.625C16.7344 4.10938 13.0156 0.390625 8.5 0.390625ZM8.5 1.98438C12.1523 1.98438 15.1406 4.97266 15.1406 8.625C15.1406 12.3105 12.1523 15.2656 8.5 15.2656C4.81445 15.2656 1.85938 12.3105 1.85938 8.625C1.85938 4.97266 4.81445 1.98438 8.5 1.98438ZM13.1484 6.33398L12.3848 5.57031C12.252 5.4043 11.9863 5.4043 11.8203 5.57031L7.13867 10.2188L5.14648 8.22656C4.98047 8.06055 4.74805 8.06055 4.58203 8.22656L3.81836 8.95703C3.68555 9.12305 3.68555 9.38867 3.81836 9.52148L6.83984 12.5762C7.00586 12.7422 7.23828 12.7422 7.4043 12.5762L13.1484 6.89844C13.2812 6.73242 13.2812 6.4668 13.1484 6.33398Z" fill="#017280"/>
</svg>
