<svg width="14" height="15" viewBox="0 0 14 15" fill="none" xmlns="http://www.w3.org/2000/svg">
<path d="M12.25 0.75H1.75C0.765625 0.75 0 1.54297 0 2.5V10.375C0 11.3594 0.765625 12.125 1.75 12.125H4.375V14.4219C4.375 14.6406 4.51172 14.75 4.70312 14.75C4.75781 14.75 4.8125 14.75 4.89453 14.6953L8.3125 12.125H12.25C13.207 12.125 14 11.3594 14 10.375V2.5C14 1.54297 13.207 0.75 12.25 0.75ZM12.6875 10.375C12.6875 10.6211 12.4688 10.8125 12.25 10.8125H7.875L7.51953 11.0859L5.6875 12.4531V10.8125H1.75C1.50391 10.8125 1.3125 10.6211 1.3125 10.375V2.5C1.3125 2.28125 1.50391 2.0625 1.75 2.0625H12.25C12.4688 2.0625 12.6875 2.28125 12.6875 2.5V10.375ZM3.5 5.5625C3.00781 5.5625 2.625 5.97266 2.625 6.4375C2.625 6.92969 3.00781 7.3125 3.5 7.3125C3.96484 7.3125 4.375 6.92969 4.375 6.4375C4.375 5.97266 3.96484 5.5625 3.5 5.5625ZM7 5.5625C6.50781 5.5625 6.125 5.97266 6.125 6.4375C6.125 6.92969 6.50781 7.3125 7 7.3125C7.46484 7.3125 7.875 6.92969 7.875 6.4375C7.875 5.97266 7.46484 5.5625 7 5.5625ZM10.5 5.5625C10.0078 5.5625 9.625 5.97266 9.625 6.4375C9.625 6.92969 10.0078 7.3125 10.5 7.3125C10.9648 7.3125 11.375 6.92969 11.375 6.4375C11.375 5.97266 10.9648 5.5625 10.5 5.5625Z" fill="#00008E"/>
</svg>
