<svg width="22" height="23" viewBox="0 0 22 23" fill="none" xmlns="http://www.w3.org/2000/svg">
<path d="M19.25 0.75H2.75C1.20312 0.75 0 1.99609 0 3.5V15.875C0 17.4219 1.20312 18.625 2.75 18.625H6.875V22.2344C6.875 22.5781 7.08984 22.75 7.39062 22.75C7.47656 22.75 7.5625 22.75 7.69141 22.6641L13.0625 18.625H19.25C20.7539 18.625 22 17.4219 22 15.875V3.5C22 1.99609 20.7539 0.75 19.25 0.75ZM19.9375 15.875C19.9375 16.2617 19.5938 16.5625 19.25 16.5625H12.375L11.8164 16.9922L8.9375 19.1406V16.5625H2.75C2.36328 16.5625 2.0625 16.2617 2.0625 15.875V3.5C2.0625 3.15625 2.36328 2.8125 2.75 2.8125H19.25C19.5938 2.8125 19.9375 3.15625 19.9375 3.5V15.875ZM15.8125 6.59375H6.1875C5.80078 6.59375 5.5 6.9375 5.5 7.28125V7.96875C5.5 8.35547 5.80078 8.65625 6.1875 8.65625H15.8125C16.1562 8.65625 16.5 8.35547 16.5 7.96875V7.28125C16.5 6.9375 16.1562 6.59375 15.8125 6.59375ZM11.6875 10.7188H6.1875C5.80078 10.7188 5.5 11.0625 5.5 11.4062V12.0938C5.5 12.4805 5.80078 12.7812 6.1875 12.7812H11.6875C12.0312 12.7812 12.375 12.4805 12.375 12.0938V11.4062C12.375 11.0625 12.0312 10.7188 11.6875 10.7188Z" fill="white"/>
</svg>
