<svg width="17" height="23" viewBox="0 0 17 23" fill="none" xmlns="http://www.w3.org/2000/svg">
<path d="M15.8555 4.96094L12.2891 1.35156C11.9023 0.964844 11.3438 0.75 10.8281 0.75H2.0625C0.902344 0.75 0 1.69531 0 2.8125V20.6875C0 21.8477 0.902344 22.75 2.0625 22.75H14.4375C15.5547 22.75 16.5 21.8477 16.5 20.6875V6.42188C16.5 5.90625 16.2422 5.34766 15.8555 4.96094ZM14.2656 6.25H11V2.98438L14.2656 6.25ZM2.0625 20.6875V2.8125H8.9375V7.28125C8.9375 7.88281 9.36719 8.3125 9.96875 8.3125H14.4375V20.6875H2.0625Z" fill="white"/>
</svg>
