<svg width="119" height="101" viewBox="0 0 119 101" fill="none" xmlns="http://www.w3.org/2000/svg">
<path fill-rule="evenodd" clip-rule="evenodd" d="M106.45 37.0001C107.293 36.9954 108.075 37.4439 108.5 38.1778L118.657 55.5462C119.106 56.2904 119.115 57.2213 118.681 57.973C118.254 58.7238 117.465 59.1902 116.607 59.1986H108.285C106.474 70.9703 100.346 81.6365 90.8806 89.3963C81.8681 96.7958 70.5198 101 59.7433 101C52.6857 101 45.3188 99.1738 38.4754 95.7626C31.4532 92.2679 25.3073 87.2173 20.4988 80.988C19.9773 80.3105 19.8553 79.403 20.1775 78.6091C20.5007 77.8161 21.2197 77.2559 22.0635 77.1423C22.9072 77.0288 23.7473 77.3769 24.2661 78.0573C28.62 83.7169 34.1969 88.3012 40.5737 91.4618C46.7727 94.5614 53.401 96.1952 59.7191 96.1952C69.4227 96.1952 79.6748 92.3514 87.8286 85.6482C96.1734 78.8015 101.657 69.5044 103.422 59.1742H96.3168C95.4581 59.1667 94.6683 58.7003 94.2427 57.9486C93.8329 57.1904 93.8422 56.2726 94.266 55.5228L104.399 38.1778C104.833 37.4524 105.61 37.0057 106.45 37.0001ZM106.45 44.1837L100.489 54.3939H112.41L106.45 44.1837Z" fill="#00008E"/>
<path fill-rule="evenodd" clip-rule="evenodd" d="M22.6606 41.8179C23.5184 41.8254 24.3082 42.292 24.7348 43.0431C25.1567 43.7988 25.1474 44.7235 24.7106 45.4708L14.5771 62.8226C14.144 63.5483 13.3672 63.9943 12.5271 63.9999C11.6832 64.0055 10.9018 63.5558 10.4762 62.8226L0.342638 45.4708C-0.10536 44.7273 -0.114674 43.796 0.318422 43.0431C0.744998 42.292 1.53482 41.8254 2.39356 41.8179H10.7388C12.5504 30.0416 18.678 19.3947 28.1446 11.6073C37.1567 4.20583 48.5066 0 59.2837 0C66.3418 0 73.6858 1.8025 80.5287 5.23851C87.5514 8.7346 93.6976 13.7882 98.5064 20.019C99.3064 21.0686 99.1137 22.5716 98.0752 23.3808C97.0357 24.1891 95.5436 23.9967 94.7389 22.9518C90.3856 17.2899 84.8075 12.7029 78.4303 9.54103C72.231 6.44017 65.6023 4.80666 59.2837 4.80666C49.5554 4.80666 39.3269 8.62757 31.1483 15.3325C22.8031 22.182 17.3191 31.4836 15.555 41.8179H22.6606ZM6.56618 46.6246L12.5271 56.8387L18.488 46.6246H6.56618Z" fill="#00008E"/>
<path fill-rule="evenodd" clip-rule="evenodd" d="M74.0061 37.9699V30.5113H74.0293C76.7409 30.5113 79 28.3938 79 25.6504V23.0761C78.9796 20.2998 76.7734 18.047 74.0293 18H44.9698C42.2257 18.047 40.0204 20.2998 40 23.0761V25.6504C40 28.3938 42.2591 30.5113 44.9698 30.5113H45.4695V37.9699C45.4769 42.8102 47.8782 47.3261 51.8661 50C47.8736 52.6692 45.4714 57.188 45.4695 62.0301V69.4887H44.9698C42.2591 69.4887 40 71.6053 40 74.3487V76.9229C40.0204 79.6992 42.2257 81.953 44.9698 82H74.0061C76.7501 81.953 78.9563 79.6992 78.9758 76.9229V74.3487C78.9758 71.6053 76.7167 69.4887 74.0061 69.4887V62.0301C73.9987 57.1889 71.5974 52.6739 67.6086 50C71.602 47.3299 74.0042 42.812 74.0061 37.9699ZM44.9698 25.6992C44.9454 25.6992 44.9195 25.7024 44.8944 25.7055C44.8218 25.7143 44.7561 25.7223 44.7561 25.6504V23.0761C44.7561 22.9803 44.875 22.812 44.9698 22.812H74.0061C74.1008 22.812 74.2197 22.9803 74.2197 23.0761V25.6504C74.2197 25.7223 74.1541 25.7143 74.0814 25.7055C74.0563 25.7024 74.0304 25.6992 74.0061 25.6992H44.9698ZM74.1062 74.2943C74.0807 74.2974 74.0542 74.3008 74.0293 74.3008H44.9698C44.9452 74.3008 44.9189 74.2975 44.8936 74.2943C44.8213 74.2852 44.7561 74.277 44.7561 74.3487V76.9229C44.7561 77.0188 44.875 77.188 44.9698 77.188H74.0293C74.125 77.188 74.2439 77.0188 74.2439 76.9229V74.3487C74.2439 74.2771 74.1788 74.2852 74.1062 74.2943ZM69.25 62.0301V69.4887H50.2256V62.0301C50.2256 56.7143 54.4838 52.406 59.7378 52.406C64.9909 52.406 69.25 56.7143 69.25 62.0301ZM50.2256 37.9699C50.2238 43.2857 54.4838 47.5949 59.7378 47.594C64.9918 47.5949 69.2509 43.2857 69.25 37.9699V30.5113H50.2256V37.9699Z" fill="#00008E"/>
</svg>
