<svg width="17" height="23" viewBox="0 0 17 23" fill="none" xmlns="http://www.w3.org/2000/svg">
<path d="M8.25 0.75C3.69531 0.75 0 4.48828 0 9C0 12.3086 1.07422 13.2969 7.39062 22.3633C7.60547 22.6211 7.90625 22.75 8.25 22.75C8.55078 22.75 8.85156 22.6211 9.06641 22.3633C15.3828 13.2969 16.5 12.3086 16.5 9C16.5 4.48828 12.7617 0.75 8.25 0.75ZM8.25 19.957C7.60547 19.0547 7.04688 18.2383 6.53125 17.5508C2.49219 11.793 2.0625 11.1055 2.0625 9C2.0625 5.60547 4.8125 2.8125 8.25 2.8125C11.6445 2.8125 14.4375 5.60547 14.4375 9C14.4375 11.1055 13.9648 11.793 9.92578 17.5508C9.41016 18.2383 8.85156 19.0547 8.25 19.957ZM12.5039 7.36719L11.5156 6.37891C11.3438 6.20703 11.0859 6.20703 10.9141 6.37891L7.17578 10.0742L5.54297 8.44141C5.37109 8.26953 5.11328 8.26953 4.94141 8.44141L3.95312 9.42969C3.78125 9.60156 3.78125 9.90234 3.95312 10.0312L6.875 12.9961C7.00391 13.168 7.30469 13.168 7.47656 12.9961L12.5039 7.96875C12.6758 7.79688 12.6758 7.53906 12.5039 7.36719Z" fill="white"/>
</svg>
