<svg width="72" height="67" viewBox="0 0 72 67" fill="none" xmlns="http://www.w3.org/2000/svg">
    <path d="M58.6644 42.3735L49.7195 50.632L45.3996 45.9091C44.8836 45.3414 44.0096 45.3043 43.4471 45.8251C42.8851 46.3458 42.8478 47.228 43.3643 47.7957L48.6259 53.5529C48.8925 53.8368 49.2625 53.9989 49.6503 54C49.997 53.9956 50.3307 53.8668 50.5919 53.6365L60.5471 44.4276C60.8208 44.1793 60.9836 43.8305 60.9988 43.4598C61.0144 43.0892 60.8819 42.7278 60.6304 42.4571C60.3816 42.1814 60.0338 42.0171 59.6644 42.0013C59.2956 41.9854 58.9353 42.1197 58.6644 42.3735V42.3735Z" fill="white"/>
    <path fill-rule="evenodd" clip-rule="evenodd" d="M23.5496 41C24.3496 41.0023 24.9977 41.6563 25 42.4634V51.5366C24.9977 52.3438 24.3496 52.9977 23.5496 53H7.45038C6.65041 52.9977 6.00227 52.3438 6 51.5366V42.4634C6.00227 41.6563 6.65041 41.0023 7.45038 41H23.5496ZM8.90076 50.2195H22.0992V43.9268H8.90076V50.2195Z" fill="white"/>
    <path fill-rule="evenodd" clip-rule="evenodd" d="M59.2673 29.5063V18.6068C59.2651 18.4228 59.2269 18.241 59.1538 18.0723L53.114 3.34763C52.2865 1.31333 50.2915 -0.0133926 48.0805 0.000341568H11.2295C9.01738 -0.0172382 7.02016 1.31058 6.19602 3.34763L0.127388 18.086C0.0504012 18.2492 0.00720016 18.4266 0 18.6068V53.0911C0.0249236 56.0819 2.47132 58.4964 5.48708 58.5057H36.3403C39.8568 63.5687 45.7831 67 52.4898 67C63.2374 67 72 58.3228 72 47.6486C71.9856 39.3509 66.6403 32.2487 59.2673 29.5063ZM50.4765 4.37385L55.737 17.1582H38.2262L35.9859 2.8131H48.0661C49.1168 2.79222 50.0727 3.41191 50.4765 4.37385ZM35.5888 19.9709H23.2532V31.1373L35.5888 26.3276V19.9709ZM23.4941 17.1582L25.848 2.8131H33.1075L35.3478 17.1582H23.4941ZM11.2295 2.8131C10.1788 2.79222 9.22286 3.41191 8.8191 4.37385L3.57294 17.1582H20.6301L22.984 2.8131H11.2295ZM5.48708 55.6929C4.03763 55.6836 2.86068 54.5283 2.83576 53.0911V19.9709H20.4175V33.2046C20.4163 33.6727 20.6501 34.1105 21.0411 34.372C21.2776 34.5247 21.5534 34.6077 21.8353 34.611C22.0148 34.6126 22.1931 34.5791 22.3598 34.5127L37.5311 28.6059C38.0712 28.3927 38.4251 27.8741 38.4245 27.2978V19.9709H56.4316V28.6905C55.135 28.4235 53.814 28.2916 52.4898 28.2966C41.7421 28.2966 32.9801 36.9881 32.9801 47.6486C32.984 50.4185 33.5832 53.1565 34.738 55.6786H5.48708V55.6929ZM35.8158 47.6486C35.8158 56.7746 43.2747 64.1735 52.4759 64.1735C61.6633 64.1735 69.1498 56.7615 69.136 47.6486C69.136 38.5219 61.6766 31.1236 52.4759 31.1236C43.2747 31.1236 35.8158 38.5219 35.8158 47.6486Z" fill="white"/>
</svg>
