<svg width="60" height="67" viewBox="0 0 60 67" fill="none" xmlns="http://www.w3.org/2000/svg">
<path fill-rule="evenodd" clip-rule="evenodd" d="M41.7724 32.0202C42.743 28.4354 40.5854 24.7373 36.9632 23.7766C34.8343 23.212 33.5663 21.0388 34.1366 18.9322C34.7073 16.8253 36.9028 15.5707 39.0322 16.1352C46.9125 18.2249 51.6056 26.2692 49.4942 34.0677C49.0164 35.8328 47.3971 37 45.6324 37C45.2908 37 44.9441 36.9563 44.5987 36.8648C43.5674 36.5912 42.7056 35.9367 42.1718 35.0217C41.6379 34.1068 41.4961 33.0409 41.7724 32.0202ZM37.3295 18.8106C37.0202 18.9872 36.799 19.2724 36.7067 19.6137C36.5159 20.318 36.94 21.0447 37.6519 21.2336C42.6913 22.5701 45.6925 27.7146 44.3424 32.7017C44.2501 33.043 44.2974 33.3995 44.476 33.7054C44.6545 34.0114 44.9428 34.2302 45.2876 34.3217C45.9991 34.5103 46.7337 34.0909 46.9245 33.3864C48.6564 26.9903 44.8069 20.3924 38.3437 18.6785C38.2285 18.648 38.1116 18.6328 37.9955 18.6328C37.764 18.6328 37.5355 18.6929 37.3295 18.8106Z" fill="white"/>
<path fill-rule="evenodd" clip-rule="evenodd" d="M37.1321 8.92472C37.6788 6.82328 39.7833 5.57192 41.8224 6.13483C54.8829 9.74013 62.6612 23.62 59.1617 37.0754C58.7036 38.836 57.1524 40 55.4617 40C55.1344 40 54.8021 39.9564 54.4714 39.8651C53.4832 39.5924 52.6575 38.9396 52.1461 38.027C51.6347 37.1144 51.4988 36.0512 51.7635 35.0332C54.1698 25.7806 48.821 16.236 39.8401 13.7567C38.8521 13.484 38.0262 12.8312 37.5147 11.9185C37.0033 11.0059 36.8674 9.94261 37.1321 8.92472ZM55.1311 37.3283C55.8136 37.5167 56.5168 37.0982 56.6995 36.3955C59.8351 24.339 52.8653 11.9021 41.1628 8.67129C41.0521 8.64083 40.9409 8.62626 40.8316 8.62626C40.2663 8.62626 39.7476 9.01545 39.5944 9.60423C39.4116 10.3067 39.8178 11.0315 40.4998 11.2198C50.8385 14.0739 56.9957 25.0613 54.2257 35.7126C54.1372 36.0529 54.1826 36.4085 54.3536 36.7136L54.3538 36.7138C54.5247 37.0189 54.8007 37.237 55.1311 37.3283Z" fill="white"/>
<path fill-rule="evenodd" clip-rule="evenodd" d="M45.9925 45.6508C44.24 42.6432 40.3451 41.6085 37.3096 43.3453L31.9327 46.4214C31.6797 46.5663 31.3848 46.605 31.1017 46.5298C30.8191 46.4548 30.583 46.2751 30.4368 46.0242L18.3321 25.2486C18.1859 24.9975 18.1469 24.7052 18.2227 24.4252C18.2984 24.1452 18.4796 23.9112 18.7328 23.7663L24.1096 20.6903C27.1449 18.9537 28.1886 15.094 26.4363 12.0864L21.2284 3.14798C19.476 0.140216 15.5809 -0.893777 12.5455 0.842499L10.7188 1.88761C0.477721 7.74652 -3.0436 20.7689 2.86893 30.9168L7.3178 38.5522C7.68239 39.1781 8.4899 39.3924 9.12164 39.0312C9.75325 38.6699 9.96968 37.8696 9.60495 37.2437L5.15622 29.6082C0.913495 22.3266 2.21171 13.3576 7.74419 7.52367L16.3888 22.3603C16.0568 22.7618 15.8112 23.2317 15.6716 23.748C15.4133 24.7032 15.5459 25.7009 16.0449 26.5573L28.1497 47.3328C28.6486 48.1891 29.4542 48.8017 30.4183 49.0577C30.9393 49.1961 31.4728 49.2203 31.9896 49.1361L40.5832 63.8853C37.5924 64.5876 34.4547 64.5493 31.4023 63.7389C26.5505 62.4507 22.4953 59.3674 19.9839 55.0569L15.5471 47.4419C15.1823 46.8159 14.3748 46.6016 13.7432 46.963C13.1116 47.3243 12.8952 48.1246 13.2599 48.7505L17.6968 56.3654C20.5609 61.2812 25.1856 64.7975 30.7188 66.2667C32.5664 66.7573 34.4413 67 36.3043 67C40.0203 67 43.6879 66.0342 46.9924 64.1438L48.8191 63.0986C50.2895 62.2574 51.3413 60.8992 51.7807 59.2741C52.2201 57.649 51.9946 55.9516 51.1456 54.4947L45.9925 45.6508ZM12.0392 4.1541L13.8659 3.10899C14.7253 2.61725 15.7267 2.48679 16.6851 2.74116C17.6437 2.99567 18.4448 3.60492 18.9411 4.4565L24.149 13.3949C25.1732 15.1529 24.5632 17.4089 22.7891 18.4239L18.5559 20.8457L9.73555 5.70745C10.4537 5.14217 11.2217 4.6219 12.0392 4.1541ZM47.4983 60.8324C48.3576 60.3407 48.9726 59.5468 49.2293 58.5969C49.4862 57.6471 49.3545 56.655 48.8583 55.8034L43.7055 46.9594C42.6812 45.2015 40.4046 44.5969 38.6303 45.6118L34.397 48.0336L43.1638 63.0803C44.0207 62.7438 44.8587 62.3426 45.6716 61.8775L47.4983 60.8324Z" fill="white"/>
<path d="M11.5 41C11.104 41 10.7185 41.1605 10.438 41.4395C10.159 41.7185 10 42.104 10 42.5C10 42.8945 10.159 43.2815 10.438 43.5605C10.7185 43.8395 11.1055 44 11.5 44C11.8945 44 12.2815 43.8395 12.5605 43.5605C12.8395 43.2815 13 42.8945 13 42.5C13 42.104 12.8395 41.7185 12.5605 41.4395C12.2815 41.1603 11.8945 41 11.5 41Z" fill="white"/>
</svg>
