<svg width="42" height="44" viewBox="0 0 42 44" fill="none" xmlns="http://www.w3.org/2000/svg">
<path fill-rule="evenodd" clip-rule="evenodd" d="M9 27C9 25.3432 10.5671 24 12.5 24C14.4325 24.0013 15.9984 25.3436 16 27C16 28.6568 14.4329 30 12.5 30C10.5671 30 9 28.6568 9 27ZM11.0114 27C11.0114 27.7045 11.6781 28.2759 12.5 28.2759C13.3215 28.2742 13.987 27.7041 13.9886 27C13.9886 26.2955 13.3223 25.7241 12.5 25.7241C11.6781 25.7241 11.0114 26.2955 11.0114 27Z" fill="white"/>
<path fill-rule="evenodd" clip-rule="evenodd" d="M26 27C26 25.3432 27.5671 24 29.5 24C31.4325 24.0013 32.9984 25.3436 33 27C33 28.6568 31.4329 30 29.5 30C27.5671 30 26 28.6568 26 27ZM28.0114 27C28.0114 27.7045 28.6777 28.2759 29.5 28.2759C30.3215 28.2742 30.9866 27.7041 30.9886 27C30.9886 26.2955 30.3219 25.7241 29.5 25.7241C28.6777 25.7241 28.0114 26.2955 28.0114 27Z" fill="white"/>
<path fill-rule="evenodd" clip-rule="evenodd" d="M4.81944 0H37.1805C39.8456 0.00150767 42.0037 2.15786 41.9999 4.81476V32.6238C42.0033 33.3882 41.7009 34.1225 41.1596 34.6641C40.6183 35.2057 39.883 35.5095 39.116 35.5088H38.9032V36.5219C38.9032 37.5833 38.0031 38.4035 36.9386 38.4035H36V42.08C36 43.1414 35.0806 44 34.0161 44H30.2033C29.1354 44.0023 28.2663 43.1444 28.258 42.08V38.4035H13.7419V42.08C13.7336 43.1444 12.8645 44.0023 11.7966 44H7.98387C6.90953 44 6.00001 43.1414 6.00001 42.08V38.4035H5.06137C3.99686 38.4035 3.09679 37.5833 3.09679 36.5219V35.5088H2.88396C2.11771 35.508 1.38321 35.2035 0.842254 34.6622C0.301302 34.1209 -0.00187262 33.3878 1.74888e-05 32.6238V4.81476C-0.00376275 2.15786 2.15437 0.00150767 4.81944 0ZM7.93549 42.0702H11.8064V38.4035H7.93549V42.0702ZM34.0645 42.0702H30.1935V38.4035H34.0645V42.0702ZM5.03227 36.4737H36.9291V33.2028C36.9291 33.0098 36.7741 32.9035 36.5904 32.9035H5.03227V36.4737ZM34.8387 20.3596H21.8709V10.0351H32.9516C33.4585 10.0362 33.9435 10.2401 34.2985 10.6012C34.6531 10.9623 34.8477 11.45 34.8387 11.9551V20.3596ZM7.16129 20.3596H19.9355V10.0351H9.04839C8.54146 10.0362 8.05645 10.2401 7.70149 10.6012C7.3469 10.9623 7.15222 11.45 7.16129 11.9551V20.3596ZM7.1613 22.2895H34.8387V30.9737H7.1613V22.2895ZM39.7908 33.2993C39.9692 33.1199 40.0679 32.8764 40.0645 32.6238V4.81476C40.0664 4.05075 39.7632 3.31764 39.2222 2.77638C38.6813 2.23513 37.9468 1.93058 37.1805 1.92982H4.81944C4.05319 1.93058 3.31869 2.23513 2.77773 2.77638C2.23678 3.31764 1.93361 4.05075 1.9355 4.81476V32.6238C1.93058 32.8767 2.02849 33.121 2.2073 33.3011C2.3861 33.4809 2.62993 33.5812 2.88396 33.5789H3.09679V32.8651C3.09679 31.7938 3.99686 30.9737 5.06137 30.9737H5.22581V11.9551C5.21485 10.9374 5.61291 9.95782 6.33116 9.23451C7.04902 8.5112 8.02773 8.10451 9.04839 8.10526H32.9516C33.9719 8.10639 34.9494 8.51346 35.6669 9.23639C36.3848 9.95932 36.7832 10.9382 36.7741 11.9551V30.9447C37.9354 31.0604 38.9032 32.0253 38.9032 33.2028V33.5789H39.116C39.3697 33.5797 39.6127 33.4791 39.7908 33.2993Z" fill="white"/>
</svg>
