<svg width="18" height="15" viewBox="0 0 18 15" fill="none" xmlns="http://www.w3.org/2000/svg">
<path d="M17.0898 8.78906C17.6094 8.29688 17.6094 7.44922 17.0898 6.92969L11.3203 1.16016C11.0742 0.914062 10.7461 0.75 10.3906 0.75H9.05078L16.1875 7.85938L9.65234 14.3672C10.1719 14.8867 11.0195 14.8867 11.5117 14.3672L17.0898 8.78906ZM13.5898 8.78906C14.1094 8.29688 14.1094 7.44922 13.5898 6.92969L7.82031 1.16016C7.57422 0.914062 7.24609 0.75 6.89062 0.75H1.3125C0.574219 0.75 0 1.35156 0 2.0625V7.66797C0 8.02344 0.136719 8.35156 0.382812 8.59766L6.15234 14.3672C6.42578 14.6406 6.75391 14.75 7.08203 14.75C7.4375 14.75 7.76562 14.6406 8.01172 14.3672L13.5898 8.78906ZM12.6875 7.85938L7.08203 13.4375L1.3125 7.66797V2.0625H6.89062L12.6875 7.85938ZM3.9375 3.375C3.19922 3.375 2.625 3.97656 2.625 4.6875C2.625 5.42578 3.19922 6 3.9375 6C4.64844 6 5.25 5.42578 5.25 4.6875C5.25 3.97656 4.64844 3.375 3.9375 3.375Z" fill="#00008E"/>
</svg>
