<svg width="90" height="75" viewBox="0 0 90 75" fill="none" xmlns="http://www.w3.org/2000/svg">
<path d="M24.1667 68H16.8333C15.8213 68 15 67.104 15 66C15 64.896 15.8213 64 16.8333 64H24.1667C25.1787 64 26 64.896 26 66C26 67.104 25.1787 68 24.1667 68Z" fill="white"/>
<path d="M43.125 68H39.375C38.34 68 37.5 67.1538 37.5 66.1111C37.5 65.0684 38.34 64.2222 39.375 64.2222H41.25V5.66667C41.25 4.62778 40.41 3.77778 39.375 3.77778H1.875C0.84 3.77778 0 2.93156 0 1.88889C0 0.846222 0.84 0 1.875 0H39.375C42.4762 0 45 2.54244 45 5.66667V66.1111C45 67.1538 44.16 68 43.125 68Z" fill="white"/>
<path d="M84.3 67H76.7C75.6512 67 74.8 66.16 74.8 65.125C74.8 64.09 75.6512 63.25 76.7 63.25H84.3C85.3488 63.25 86.2 62.4062 86.2 61.375V25.75H55.8V63.25H61.5C62.5488 63.25 63.4 64.09 63.4 65.125C63.4 66.16 62.5488 67 61.5 67H53.9C52.8512 67 52 66.16 52 65.125V23.875C52 22.84 52.8512 22 53.9 22H88.1C89.1488 22 90 22.84 90 23.875V61.375C90 64.4762 87.4426 67 84.3 67Z" fill="white"/>
<path d="M28 49C26.896 49 26 48.1712 26 47.15V13.85C26 12.8288 26.896 12 28 12C29.104 12 30 12.8288 30 13.85V47.15C30 48.1712 29.104 49 28 49Z" fill="white"/>
<path d="M9 49C7.896 49 7 48.1712 7 47.15V13.85C7 12.8288 7.896 12 9 12C10.104 12 11 12.8288 11 13.85V47.15C11 48.1712 10.104 49 9 49Z" fill="white"/>
<path fill-rule="evenodd" clip-rule="evenodd" d="M60 65.5C60 70.7402 64.2636 75 69.5 75C74.7364 75 79 70.7402 79 65.5C79 60.2598 74.7364 56 69.5 56C64.2636 56 60 60.2598 60 65.5ZM63.8 65.5C63.8 62.3574 66.3574 59.8 69.5 59.8C72.6426 59.8 75.2 62.3574 75.2 65.5C75.2 68.6426 72.6426 71.2 69.5 71.2C66.3574 71.2 63.8 68.6426 63.8 65.5Z" fill="white"/>
<path fill-rule="evenodd" clip-rule="evenodd" d="M22 65.5C22 70.7402 26.2636 75 31.5 75C36.7364 75 41 70.7402 41 65.5C41 60.2598 36.7364 56 31.5 56C26.2636 56 22 60.2598 22 65.5ZM25.8 65.5C25.8 62.3574 28.3574 59.8 31.5 59.8C34.6426 59.8 37.2 62.3574 37.2 65.5C37.2 68.6426 34.6426 71.2 31.5 71.2C28.3574 71.2 25.8 68.6426 25.8 65.5Z" fill="white"/>
<path fill-rule="evenodd" clip-rule="evenodd" d="M0 65.5C0 70.7402 4.2636 75 9.5 75C14.7364 75 19 70.7402 19 65.5C19 60.2598 14.7364 56 9.5 56C4.2636 56 0 60.2598 0 65.5ZM3.8 65.5C3.8 62.3574 6.3574 59.8 9.5 59.8C12.6426 59.8 15.2 62.3574 15.2 65.5C15.2 68.6426 12.6426 71.2 9.5 71.2C6.3574 71.2 3.8 68.6426 3.8 65.5Z" fill="white"/>
<path d="M80.125 26C79.09 26 78.25 25.168 78.25 24.1429C78.25 12.8811 68.9987 3.71429 57.625 3.71429H55.75V24.1429C55.75 25.168 54.91 26 53.875 26C52.84 26 52 25.168 52 24.1429V1.85714C52 0.832 52.84 0 53.875 0H57.625C71.065 0 82 10.8309 82 24.1429C82 25.168 81.16 26 80.125 26Z" fill="white"/>
<path d="M88.1429 49H65.8571C64.832 49 64 48.16 64 47.125V35.875C64 34.84 64.832 34 65.8571 34H88.1429C89.168 34 90 34.84 90 35.875C90 36.91 89.168 37.75 88.1429 37.75H67.7143V45.25H88.1429C89.168 45.25 90 46.09 90 47.125C90 48.16 89.168 49 88.1429 49Z" fill="white"/>
<path d="M54.125 68H42.875C41.84 68 41 67.104 41 66C41 64.896 41.84 64 42.875 64H54.125C55.16 64 56 64.896 56 66C56 67.104 55.16 68 54.125 68Z" fill="white"/>
</svg>
