<svg width="15" height="15" viewBox="0 0 15 15" fill="none" xmlns="http://www.w3.org/2000/svg">
<path d="M7.28125 3.59375C5.83203 3.59375 4.65625 4.76953 4.65625 6.21875C4.65625 7.66797 5.83203 8.84375 7.28125 8.84375C8.73047 8.84375 9.90625 7.66797 9.90625 6.21875C9.90625 4.76953 8.73047 3.59375 7.28125 3.59375ZM7.28125 7.53125C6.54297 7.53125 5.96875 6.95703 5.96875 6.21875C5.96875 5.50781 6.54297 4.90625 7.28125 4.90625C7.99219 4.90625 8.59375 5.50781 8.59375 6.21875C8.59375 6.95703 7.99219 7.53125 7.28125 7.53125ZM7.28125 0.96875C3.53516 0.96875 0.5 4.00391 0.5 7.75C0.5 11.4961 3.53516 14.5312 7.28125 14.5312C11.0273 14.5312 14.0625 11.4961 14.0625 7.75C14.0625 4.00391 11.0273 0.96875 7.28125 0.96875ZM7.28125 13.2188C5.91406 13.2188 4.65625 12.7266 3.69922 11.9062C4.10938 11.2773 4.82031 10.8398 5.61328 10.8398C6.1875 11.0039 6.73438 11.0859 7.28125 11.0859C7.80078 11.0859 8.34766 11.0039 8.92188 10.8398C9.71484 10.8672 10.4258 11.2773 10.8359 11.9062C9.87891 12.7266 8.62109 13.2188 7.28125 13.2188ZM11.7109 10.9219C11.0547 10.0742 10.0156 9.5 8.83984 9.5C8.56641 9.5 8.12891 9.77344 7.28125 9.77344C6.40625 9.77344 5.96875 9.5 5.69531 9.5C4.51953 9.5 3.48047 10.0742 2.82422 10.9219C2.16797 10.0469 1.8125 8.95312 1.8125 7.75C1.8125 4.74219 4.24609 2.28125 7.28125 2.28125C10.2891 2.28125 12.75 4.74219 12.75 7.75C12.75 8.95312 12.3672 10.0469 11.7109 10.9219Z" fill="#00008E"/>
</svg>
